<?xml version="1.0" encoding="UTF-8"?>
<svg id="_레이어_1" data-name="레이어 1" xmlns="http://www.w3.org/2000/svg" viewBox="0 0 71 70">
  <path d="M44.34,37.46c0,5.44-4.92,13.17-10.86,16.6-2.56,1.47-5.36,2.34-8.17,2.61-5.77.62-11.66-1.2-16.15-5.27C2.13,45.03.05,34.96,3.93,26.29c3.06-6.97,9.64-11.66,17.1-12.37v8.62c-3.41.62-6.47,2.61-8.37,5.52-1.78,2.61-2.52,5.73-2.09,8.81.77,6.37,6.18,11.23,12.65,11.27.7,0,1.41-.08,2.09-.19,5.38-.95,9.55-5.15,10.46-10.5h8.56Z" style="fill: #fff; stroke-width: 0px;"/>
  <path d="M68.98,35.25c.31,11.12-8.11,20.49-19,21.57v-8.62c3.23-.62,6.18-2.46,8.13-5.15,1.9-2.65,2.73-5.89,2.36-9.14-.72-5.98-5.4-10.61-11.46-11.25-1.12-.08-2.19-.04-3.18.1-5.05.72-8.52,4.24-10.38,10.57h-8.6c.29-4.9,2.25-9.49,5.62-13.13,3-3.2,6.8-5.36,11-6.24,1.2-.25,2.44-.41,3.68-.45,5.62-.19,11,1.8,15.14,5.64,4.11,3.85,6.49,9.06,6.7,14.68.02.43.02.87,0,1.43Z" style="fill: #fff; opacity: .86; stroke-width: 0px;"/>
</svg>