<?xml version="1.0" encoding="UTF-8"?>
<svg id="_레이어_1" data-name="레이어 1" xmlns="http://www.w3.org/2000/svg" viewBox="0 0 58 31">
  <path d="M9.48,22.64c-2.78,0-4.92-1.52-4.92-3.98h2.44c.1,1.14.9,2.06,2.48,2.06s2.5-.86,2.5-2.04c0-3.36-7.38-1.18-7.38-6.3,0-2.44,1.94-3.96,4.78-3.96,2.66,0,4.54,1.4,4.74,3.78h-2.52c-.08-.94-.9-1.8-2.34-1.84-1.32-.04-2.34.6-2.34,1.94,0,3.14,7.36,1.18,7.36,6.26,0,2.08-1.7,4.08-4.8,4.08ZM26.96,22.5h-2.28v-1.32c-.72.94-1.96,1.48-3.26,1.48-2.58,0-4.54-1.62-4.54-4.7v-6.48h2.26v6.14c0,2.02,1.1,3.06,2.76,3.06s2.78-1.04,2.78-3.06v-6.14h2.28v11.02ZM29.66,8.56c0-.82.64-1.46,1.46-1.46s1.44.64,1.44,1.46-.64,1.46-1.44,1.46-1.46-.64-1.46-1.46ZM29.96,11.48h2.28v11.02h-2.28v-11.02ZM35.6,13.34h-1.3v-1.86h1.3v-2.74h2.3v2.74h2.68v1.86h-2.68v6.1c0,.82.32,1.16,1.28,1.16h1.4v1.9h-1.8c-1.96,0-3.18-.82-3.18-3.06v-6.1ZM47.42,22.68c-3.16,0-5.5-2.24-5.5-5.7s2.24-5.68,5.5-5.68,5.36,2.18,5.36,5.42c0,.38-.02.74-.08,1.12h-8.42c.16,1.82,1.46,2.92,3.14,2.92,1.4,0,2.18-.68,2.6-1.54h2.46c-.62,1.92-2.36,3.46-5.06,3.46ZM44.3,16h6.1c-.04-1.7-1.38-2.78-3.08-2.78-1.54,0-2.78,1.04-3.02,2.78ZM9.48,22.64c-2.78,0-4.92-1.52-4.92-3.98h2.44c.1,1.14.9,2.06,2.48,2.06s2.5-.86,2.5-2.04c0-3.36-7.38-1.18-7.38-6.3,0-2.44,1.94-3.96,4.78-3.96,2.66,0,4.54,1.4,4.74,3.78h-2.52c-.08-.94-.9-1.8-2.34-1.84-1.32-.04-2.34.6-2.34,1.94,0,3.14,7.36,1.18,7.36,6.26,0,2.08-1.7,4.08-4.8,4.08ZM26.96,22.5h-2.28v-1.32c-.72.94-1.96,1.48-3.26,1.48-2.58,0-4.54-1.62-4.54-4.7v-6.48h2.26v6.14c0,2.02,1.1,3.06,2.76,3.06s2.78-1.04,2.78-3.06v-6.14h2.28v11.02ZM29.66,8.56c0-.82.64-1.46,1.46-1.46s1.44.64,1.44,1.46-.64,1.46-1.44,1.46-1.46-.64-1.46-1.46ZM29.96,11.48h2.28v11.02h-2.28v-11.02ZM35.6,13.34h-1.3v-1.86h1.3v-2.74h2.3v2.74h2.68v1.86h-2.68v6.1c0,.82.32,1.16,1.28,1.16h1.4v1.9h-1.8c-1.96,0-3.18-.82-3.18-3.06v-6.1ZM47.42,22.68c-3.16,0-5.5-2.24-5.5-5.7s2.24-5.68,5.5-5.68,5.36,2.18,5.36,5.42c0,.38-.02.74-.08,1.12h-8.42c.16,1.82,1.46,2.92,3.14,2.92,1.4,0,2.18-.68,2.6-1.54h2.46c-.62,1.92-2.36,3.46-5.06,3.46ZM44.3,16h6.1c-.04-1.7-1.38-2.78-3.08-2.78-1.54,0-2.78,1.04-3.02,2.78Z" style="fill: #fff; stroke-width: 0px;"/>
</svg>