<?xml version="1.0" encoding="UTF-8"?>
<svg id="_레이어_1" data-name="레이어 1" xmlns="http://www.w3.org/2000/svg" viewBox="0 0 77 31">
  <path d="M7.19,10.67h1.95l3.87,8.64,3.85-8.64h1.93v11.02h-1.81v-7.55l-3.36,7.55h-1.25l-3.38-7.55v7.55h-1.81v-11.02ZM24.77,21.83c-2.49,0-4.38-1.78-4.38-4.52s1.97-4.5,4.46-4.5,4.45,1.76,4.45,4.5-2.03,4.52-4.53,4.52ZM24.77,20.26c1.35,0,2.68-.97,2.68-2.95s-1.28-2.93-2.63-2.93-2.58.95-2.58,2.93,1.17,2.95,2.54,2.95ZM34.45,12.81c1.14,0,2.35.54,3.01,1.36v-4.22h1.82v11.73h-1.82v-1.32c-.55.79-1.6,1.46-3.03,1.46-2.3,0-4.12-1.85-4.12-4.55s1.82-4.47,4.14-4.47ZM34.81,14.38c-1.35,0-2.65,1.01-2.65,2.9s1.3,2.98,2.65,2.98,2.65-1.06,2.65-2.95-1.28-2.93-2.65-2.93ZM45.23,21.83c-2.5,0-4.36-1.78-4.36-4.52s1.78-4.5,4.36-4.5,4.25,1.73,4.25,4.3c0,.3-.02.59-.06.89h-6.67c.13,1.44,1.16,2.31,2.49,2.31,1.11,0,1.73-.54,2.06-1.22h1.95c-.49,1.52-1.87,2.74-4.01,2.74ZM42.76,16.54h4.83c-.03-1.35-1.09-2.2-2.44-2.2-1.22,0-2.2.82-2.39,2.2ZM51.07,9.96h1.81v11.73h-1.81v-11.73ZM58.82,21.83c-2.5,0-4.36-1.78-4.36-4.52s1.78-4.5,4.36-4.5,4.25,1.73,4.25,4.3c0,.3-.02.59-.06.89h-6.67c.13,1.44,1.16,2.31,2.49,2.31,1.11,0,1.73-.54,2.06-1.22h1.95c-.49,1.52-1.87,2.74-4.01,2.74ZM56.35,16.54h4.83c-.03-1.35-1.09-2.2-2.44-2.2-1.22,0-2.2.82-2.39,2.2ZM66.46,21.69h-1.81v-8.74h1.81v1.27c.51-.87,1.38-1.41,2.62-1.41v1.87h-.46c-1.33,0-2.16.55-2.16,2.41v4.6ZM2,8.35H1v15h1v-15Z" style="fill: #fff; stroke-width: 0px;"/>
</svg>