<?xml version="1.0" encoding="UTF-8"?>
<svg id="_레이어_1" data-name="레이어 1" xmlns="http://www.w3.org/2000/svg" viewBox="0 0 77 31">
  <path d="M15.37,20.53l2.65,2.81h-2.3l-1.93-2.09c-.49.14-1.01.21-1.57.21-3.11,0-5.63-2.33-5.63-5.64s2.52-5.63,5.63-5.63,5.63,2.33,5.63,5.63c0,2.08-.97,3.76-2.47,4.72ZM12.21,19.88c2.19,0,3.77-1.59,3.77-4.07s-1.58-4.04-3.77-4.04-3.77,1.55-3.77,4.04,1.58,4.07,3.77,4.07ZM19.48,10.32h1.95l3.87,8.64,3.85-8.64h1.93v11.02h-1.81v-7.55l-3.36,7.55h-1.25l-3.38-7.55v7.55h-1.81v-11.02ZM36.9,21.45c-2.2,0-3.9-1.2-3.9-3.15h1.93c.08.9.71,1.63,1.97,1.63s1.98-.68,1.98-1.62c0-2.66-5.85-.94-5.85-4.99,0-1.93,1.54-3.14,3.79-3.14,2.11,0,3.6,1.11,3.76,3h-2c-.06-.75-.71-1.43-1.85-1.46-1.05-.03-1.86.48-1.86,1.54,0,2.49,5.83.94,5.83,4.96,0,1.65-1.35,3.23-3.8,3.23ZM2,8H1v15h1v-15Z" style="fill: #fff; stroke-width: 0px;"/>
</svg>