<?xml version="1.0" encoding="UTF-8"?>
<svg id="_레이어_1" data-name="레이어 1" xmlns="http://www.w3.org/2000/svg" viewBox="0 0 77 31">
  <path d="M10.82,21.8c-2.2,0-3.9-1.2-3.9-3.15h1.93c.08.9.71,1.63,1.97,1.63s1.98-.68,1.98-1.62c0-2.66-5.85-.94-5.85-4.99,0-1.93,1.54-3.14,3.79-3.14,2.11,0,3.6,1.11,3.76,3h-2c-.06-.75-.71-1.43-1.86-1.46-1.05-.03-1.85.48-1.85,1.54,0,2.49,5.83.94,5.83,4.96,0,1.65-1.35,3.23-3.8,3.23ZM20.38,17.22h-2v4.47h-1.81v-11.02h3.8c2.62,0,3.9,1.49,3.9,3.28,0,1.57-1.03,3.27-3.9,3.27ZM20.38,15.74c1.41,0,2.04-.68,2.04-1.79s-.63-1.81-2.04-1.81h-2v3.6h2ZM30.85,10.53c2.3,0,4.28,1.16,5.12,3.31h-2.17c-.59-1.17-1.63-1.73-2.95-1.73-2.19,0-3.77,1.55-3.77,4.04s1.58,4.06,3.77,4.06c1.32,0,2.36-.55,2.95-1.73h2.17c-.84,2.16-2.82,3.3-5.12,3.3-3.11,0-5.63-2.31-5.63-5.63s2.52-5.63,5.63-5.63ZM2,8.35H1v15h1v-15Z" style="fill: #fff; stroke-width: 0px;"/>
</svg>