<?xml version="1.0" encoding="UTF-8"?><svg id="Layer_1" xmlns="http://www.w3.org/2000/svg" xmlns:xlink="http://www.w3.org/1999/xlink" viewBox="0 0 130 130"><defs><linearGradient id="linear-gradient" x1="83.7" y1="99" x2="40.5" y2="40" gradientUnits="userSpaceOnUse"><stop offset="0" stop-color="#f79948"/><stop offset="1" stop-color="#ef4e23"/></linearGradient><linearGradient id="linear-gradient-2" x1="103.9" y1="107.8" x2="27.5" y2="24.7" gradientUnits="userSpaceOnUse"><stop offset="0" stop-color="#A3A6AF"/><stop offset="1" stop-color="#B8BAC1"/></linearGradient></defs><rect x="0" y="0" width="130" height="130" style="fill:none;"/><path d="m94,95.6c-3.8,0-7.2,0-10.7,0-2.5-11.6-7.8-16.9-18.3-17.1-8.7-.1-13.8,5.3-17.1,17.1h-10.8c.2-10.7,5.1-18.6,13.9-24.8-5.8-5.9-9.3-12.7-8.1-21,.8-6,3.5-11.1,8.2-15,9.1-7.6,22.1-7,30.5,1.3,9.5,9.4,9.1,22-1.3,34.8,8.5,5.9,13.6,13.8,13.8,24.7Zm-28.5-54.4c-6.4,0-11.3,4.9-11.4,11.3,0,6.3,4.9,11.6,11,11.8,6.3.2,11.6-5.1,11.6-11.6,0-6.4-4.9-11.4-11.3-11.4Z" style="fill:url(#linear-gradient);"/><path d="m65.5,120.6c-30.1,0-54.5-24.5-54.5-54.5S35.4,11.5,65.5,11.5s54.5,24.5,54.5,54.5-24.5,54.5-54.5,54.5Zm0-101.4c-25.9,0-46.9,21-46.9,46.9s21,46.9,46.9,46.9,46.9-21,46.9-46.9-21-46.9-46.9-46.9Z" style="fill:url(#linear-gradient-2);"/></svg>