<?xml version="1.0" encoding="UTF-8"?>
<svg id="Layer_1" data-name="Layer 1" xmlns="http://www.w3.org/2000/svg" viewBox="0 0 128 128">
  <defs>
    <style>
      .cls-1 {
        fill: #a5a5a5;
      }

      .cls-1, .cls-2 {
        stroke-width: 0px;
      }

      .cls-2 {
        fill: #565656;
      }
    </style>
  </defs>
  <path class="cls-2" d="M109.37,40.36c-.01-.15-.04-.32-.07-.46-.03-.18-.08-.37-.14-.55-.05-.16-.11-.32-.17-.48-.27-.65-.67-1.24-1.17-1.75l-27.39-27.39c-.3-.3-.63-.56-.99-.78-.23-.14-.47-.27-.73-.38-.67-.29-1.41-.44-2.16-.44h-38.35c-9.06,0-16.43,7.37-16.43,16.43v76.7c0,9.06,7.37,16.43,16.43,16.43h54.78c9.07,0,16.43-7.37,16.43-16.43v-60.25c0-.22-.01-.43-.04-.64ZM82.02,26.82l8.69,8.69h-8.69v-8.69ZM98.46,101.25c0,3.02-2.46,5.47-5.48,5.47h-54.78c-3.02,0-5.47-2.45-5.47-5.47V24.55c0-3.02,2.45-5.47,5.47-5.47h32.87v16.43c0,6.04,4.91,10.96,10.95,10.96h16.44v54.78Z"/>
  <path class="cls-1" d="M49.77,41.32l3.87-3.87c2.14-2.14,2.14-5.61,0-7.75-2.14-2.14-5.61-2.14-7.75,0l-3.87,3.87c-2.14,2.14-2.14,5.61,0,7.75,2.14,2.14,5.61,2.14,7.75,0Z"/>
  <path class="cls-1" d="M42.13,92.07c-2.14,2.14-2.14,5.61,0,7.75,2.14,2.14,5.61,2.14,7.75,0l37.96-37.86c2.14-2.14,2.14-5.61,0-7.75-2.14-2.14-5.61-2.14-7.75,0l-37.96,37.86Z"/>
  <path class="cls-1" d="M71.86,91.69c-2.14,2.14-2.14,5.61,0,7.75,2.14,2.14,5.61,2.14,7.75,0l15.61-15.61c2.14-2.14,2.14-5.61,0-7.75-2.14-2.14-5.61-2.14-7.75,0l-15.61,15.61Z"/>
  <path class="cls-1" d="M45.8,72.87l23.24-23.24c2.14-2.14,2.14-5.61,0-7.75-2.14-2.14-5.61-2.14-7.75,0l-23.24,23.24c-2.14,2.14-2.14,5.61,0,7.75,2.14,2.14,5.61,2.14,7.75,0Z"/>
</svg>