<svg id="Layer_1" data-name="Layer 1" xmlns="http://www.w3.org/2000/svg" viewBox="0 0 129.26 129.26"><path d="M86.12,104.31H42.42l-1,14.5s-.69,3.43-2,.71L12.34,95.92s.2-.27,0-3.41c1.85.09,27.07-23.87,27.07-23.87s1.73-2,1.73,3V83.71h48.3S96.9,84,96.9,72.9v-.71s-.14-6.8,3.55-8.46c3.69-6.6,12.49-15.55,12.49-15.55s4-4.13,4,4V76S116.91,104.31,86.12,104.31Zm4.29-44.74s-3.12,2-3.12-2.24V44.5H41.6s-10.07-.28-10.07,10.8V56S31.67,64,28,67.53,17.43,80,17.43,80s-5.53,4.12-5.53-4V52.74s0-28.84,30.41-28.84H86.72L88.8,9.4s-1.11-.09,1.61-.71l25.68,23.59a2.21,2.21,0,0,1,0,3.41C114.25,37.54,90.41,59.57,90.41,59.57Z" style="fill:#3a3b42;fill-rule:evenodd"/></svg>