<svg id="Layer_1" data-name="Layer 1" xmlns="http://www.w3.org/2000/svg" viewBox="0 0 129.26 129.26"><path d="M120.56,74.17a56.69,56.69,0,1,0-111.62,0l1.26,5.62a56.61,56.61,0,0,0,109.1,0ZM43,81.36a21.13,21.13,0,0,0,8.68-1.74l1.09,4.23a26.45,26.45,0,0,1-10.86,2c-11.6,0-20.32-7.32-20.32-20.84,0-12.87,8.72-21.63,21.5-21.63,5.1,0,8.32,1.09,9.76,1.83l-1.31,4.36a18.88,18.88,0,0,0-8.28-1.74c-9.64,0-16.09,6.19-16.09,17C27.12,74.87,33,81.36,43,81.36Zm20.41,4.49a3.84,3.84,0,0,1,0-7.67,3.84,3.84,0,0,1,0,7.67Zm31.3-4.49a21.13,21.13,0,0,0,8.68-1.74l1.09,4.23a26.56,26.56,0,0,1-10.86,2C82,85.81,73.21,78.49,73.21,65c0-12.87,8.76-21.63,21.5-21.63,5.14,0,8.37,1.09,9.76,1.83l-1.26,4.36a18.92,18.92,0,0,0-8.28-1.74c-9.68,0-16.1,6.19-16.1,17C78.83,74.87,84.63,81.36,94.66,81.36Z" style="fill:#3a3b42"/></svg>