<svg id="Layer_1" data-name="Layer 1" xmlns="http://www.w3.org/2000/svg" viewBox="0 0 129.26 129.26"><path d="M86,48a30,30,0,0,0-6.16.56V80.65a31.27,31.27,0,0,0,5.34.31c11.2,0,17.31-6.25,17.31-17.23C102.5,54.13,97.08,48,86,48Zm39.79,22.27A11.37,11.37,0,0,0,124,56.54L72.7,5.25a11.38,11.38,0,0,0-16.15,0L5.26,56.54A11.43,11.43,0,0,0,3.5,70.28l53.05,53.65a11.46,11.46,0,0,0,16.15,0ZM42.26,81a20.81,20.81,0,0,0,8.57-1.72L52,83.5a26.69,26.69,0,0,1-10.77,1.93c-11.45,0-20.07-7.23-20.07-20.58,0-12.7,8.62-21.36,21.23-21.36A22.18,22.18,0,0,1,52,45.3l-1.25,4.3a18.88,18.88,0,0,0-8.22-1.67C33,47.93,26.67,54,26.67,64.68,26.67,74.63,32.4,81,42.26,81Zm20.15,4.44a3.8,3.8,0,0,1,0-7.58,3.8,3.8,0,0,1,0,7.58Zm39.66-6.16C98.28,83.15,92,85.18,84.12,85.18a84.5,84.5,0,0,1-9.52-.48v-40a75.48,75.48,0,0,1,11.15-.82c7.54,0,12.88,1.72,16.45,5s5.73,8,5.73,14.59S105.91,75.62,102.07,79.32ZM86,48a30,30,0,0,0-6.16.56V80.65a31.27,31.27,0,0,0,5.34.31c11.2,0,17.31-6.25,17.31-17.23C102.5,54.13,97.08,48,86,48Zm0,0a30,30,0,0,0-6.16.56V80.65a31.27,31.27,0,0,0,5.34.31c11.2,0,17.31-6.25,17.31-17.23C102.5,54.13,97.08,48,86,48Z" style="fill:#3a3b42"/></svg>