<?xml version="1.0" encoding="UTF-8"?>
<svg id="Layer_1" data-name="Layer 1" xmlns="http://www.w3.org/2000/svg" viewBox="0 0 128 128">
  <defs>
    <style>
      .cls-1 {
        fill: #3a3b42;
        stroke-width: 0px;
      }
    </style>
  </defs>
  <path class="cls-1" d="M91.36,60.68c-16.43,0-29.75,13.32-29.75,29.75s13.32,29.75,29.75,29.75,29.75-13.32,29.75-29.75-13.32-29.75-29.75-29.75ZM103.01,95.69v.04h-21.89v-.05c-.24.03-.49.05-.74.05-2.93,0-5.3-2.37-5.3-5.3s2.37-5.3,5.3-5.3c.25,0,.5.02.74.05v-.05h21.89v.04c2.62.32,4.65,2.55,4.65,5.26s-2.03,4.94-4.65,5.26ZM44.83,47.83h-17.37c-4.79,0-8.68-3.89-8.68-8.68v-17.37c0-4.79,3.89-8.68,8.68-8.68h17.37c4.79,0,8.68,3.89,8.68,8.68v17.37c0,4.79-3.89,8.68-8.68,8.68ZM44.83,21.78h-17.37v17.37s17.37,0,17.37,0v-17.37ZM88.25,47.83h-17.37c-4.79,0-8.68-3.89-8.68-8.68v-17.37c0-4.79,3.89-8.68,8.68-8.68h17.37c4.79,0,8.68,3.89,8.68,8.68v17.37c0,4.79-3.89,8.68-8.68,8.68ZM88.25,21.78h-17.38v17.37s17.37,0,17.37,0v-17.37ZM44.83,91.24h-17.37c-4.79,0-8.68-3.89-8.68-8.68v-17.37c0-4.79,3.89-8.68,8.68-8.68h17.37c4.79,0,8.68,3.89,8.68,8.68v17.37c0,4.79-3.89,8.68-8.68,8.68ZM44.83,65.19h-17.37v17.37h17.37v-17.37ZM41,25.01h-10.39v10.39h10.39v-10.39Z"/>
</svg>