<?xml version="1.0" encoding="UTF-8"?>
<svg id="Layer_1" data-name="Layer 1" xmlns="http://www.w3.org/2000/svg" viewBox="0 0 128 128">
  <defs>
    <style>
      .cls-1 {
        fill: #3a3b42;
        stroke-width: 0px;
      }
    </style>
  </defs>
  <path class="cls-1" d="M22.16,38.99c0-2.59,2-4.68,4.47-4.68h75.84c2.47,0,4.47,2.09,4.47,4.68s-2,4.68-4.47,4.68H26.63c-2.47,0-4.47-2.09-4.47-4.68ZM102.47,51.23H26.63c-2.47,0-4.47,2.09-4.47,4.68s2,4.68,4.47,4.68h75.84c2.47,0,4.47-2.09,4.47-4.68s-2-4.68-4.47-4.68ZM102.47,68.04H26.63c-2.47,0-4.47,2.09-4.47,4.68s2,4.68,4.47,4.68h75.84c2.47,0,4.47-2.09,4.47-4.68s-2-4.68-4.47-4.68ZM102.47,18.04H26.63c-2.47,0-4.47,2.09-4.47,4.68s2,4.68,4.47,4.68h75.84c2.47,0,4.47-2.09,4.47-4.68s-2-4.68-4.47-4.68ZM82.31,85.21h19.16c2.55,0,4.64,2.09,4.64,4.64v9.28c0,5.1-4.18,9.28-9.28,9.28H31.88c-5.1,0-9.28-4.18-9.28-9.28v-9.28c0-2.55,2.09-4.64,4.64-4.64h19.16c2.18,0,3.94,1.58,4.55,3.71,1.62,5.89,7,10.21,13.41,10.21s11.78-4.31,13.41-10.21c.6-2.13,2.37-3.71,4.55-3.71Z"/>
</svg>