<svg id="Layer_1" data-name="Layer 1" xmlns="http://www.w3.org/2000/svg" viewBox="0 0 129.26 129.26"><path d="M12.42,111a5.81,5.81,0,0,0,5.83,5.79h34.8A5.8,5.8,0,0,0,58.84,111V76.23a5.8,5.8,0,0,0-5.79-5.79H18.25a5.81,5.81,0,0,0-5.83,5.79Zm104.42-34.8A5.84,5.84,0,0,0,111,70.44H76.21a5.8,5.8,0,0,0-5.79,5.79V111a5.8,5.8,0,0,0,5.79,5.79H111a5.84,5.84,0,0,0,5.84-5.79ZM110,12.44H75.21a5.84,5.84,0,0,0-5.84,5.79V53a5.87,5.87,0,0,0,5.84,5.84H110A5.86,5.86,0,0,0,115.79,53V18.23A5.83,5.83,0,0,0,110,12.44Zm-56.95,0H18.25a5.81,5.81,0,0,0-5.83,5.79V53a5.84,5.84,0,0,0,5.83,5.84h34.8A5.84,5.84,0,0,0,58.84,53V18.23A5.8,5.8,0,0,0,53.05,12.44Z" style="fill:#3a3b42"/></svg>