<?xml version="1.0" encoding="UTF-8"?>
<svg id="Layer_1" data-name="Layer 1" xmlns="http://www.w3.org/2000/svg" viewBox="0 0 128 128">
  <defs>
    <style>
      .cls-1 {
        fill: #3a3b42;
        stroke-width: 0px;
      }
    </style>
  </defs>
  <path class="cls-1" d="M113.81,72.12s-.2,1-.85,1-1.21-1-1.21-1l-3.86-6.27c-4.12-6.55-9.02-12.61-15.22-15.38-4.88-2.19-26.63-3.8-34.67-4.02v13.01c0,3.89-3.15.92-3.15.92l-30.18-20.12s-3.09-1.88-3.09-3.7,3.41-3.5,3.41-3.5l29.58-19.73s3.4-2.62,3.4.35v13.51c12.65.56,38.96,4.18,46.03,11.29,10.5,10.57,9.78,23.88,9.78,27.26,0,1.79.02,4.36.02,6.39ZM14.54,62.31c0,3.37-.72,16.69,9.78,27.26,7.07,7.11,33.38,10.73,46.03,11.29v13.51c0,2.97,3.4.35,3.4.35l29.58-19.73s3.41-1.68,3.41-3.5-3.09-3.7-3.09-3.7l-30.18-20.12s-3.15-2.98-3.15.92v13.01c-8.03-.22-29.79-1.83-34.67-4.02-6.21-2.77-11.11-8.84-15.22-15.38l-3.86-6.27s-.56-1-1.21-1-.85,1-.85,1c0,2.03.02,4.6.02,6.39Z"/>
</svg>