<?xml version="1.0" encoding="UTF-8"?>
<svg id="Layer_1" data-name="Layer 1" xmlns="http://www.w3.org/2000/svg" viewBox="0 0 128 128">
  <defs>
    <style>
      .cls-1, .cls-2 {
        stroke-width: 0px;
      }

      .cls-2 {
        fill: #b5b5b5;
      }
    </style>
  </defs>
  <g>
    <rect class="cls-2" x="17.05" y="38.28" width="77.64" height="43.6" rx="4.5" ry="4.5"/>
    <rect class="cls-2" x="24.01" y="22.59" width="24.38" height="13.69" rx="1.41" ry="1.41"/>
    <rect class="cls-2" x="63.02" y="22.59" width="24.38" height="13.69" rx="1.41" ry="1.41"/>
  </g>
  <path class="cls-1" d="M103.76,67.97c-5.82-5.6-14.98-6.55-22.12-2.37-3.77,2.21-6.41,5.39-7.86,9.49-.51,1.44-1.3,1.92-2.77,1.83-1.82-.11-3.66-.01-5.49-.03-1.46-.02-1.93-.58-1.53-1.94,3.35-11.26,10.42-18.74,22.18-20.94,8.46-1.58,16.15.61,22.86,6.07.39.31.77.64,1.16.95.06.05.15.07.34.15,1.27-1.23,2.57-2.5,3.89-3.76.39-.37.77-.76,1.21-1.08,1.3-.94,2.93-.34,3.31,1.22.12.48.13.99.13,1.49,0,4.91.01,9.81,0,14.72,0,2.37-.76,3.12-3.15,3.13-4.87.01-9.73.04-14.59-.03-.84-.01-1.85-.3-2.46-.82-1.01-.86-.89-2.09.05-3.07,1.32-1.38,2.67-2.74,4.01-4.1.28-.29.56-.59.84-.89ZM73.09,102.69c6.71,5.61,14.45,7.93,23.02,6.28,11.7-2.25,18.74-9.71,21.99-20.98.36-1.23,0-1.68-1.33-1.7-1.54-.03-3.08,0-4.62,0-2.64,0-2.72-.03-3.64,2.38-3.1,8.14-11.93,12.7-20.1,11.31-3.69-.63-6.93-2.2-9.89-4.97,1.6-1.52,3.12-2.99,4.68-4.42.82-.76,1.38-1.57.92-2.74-.47-1.2-1.36-1.63-2.64-1.62-5.03.04-10.06.01-15.1.02-2.14,0-2.95.8-2.96,2.93-.02,4.99,0,9.98-.01,14.97,0,1.2.26,2.26,1.45,2.79,1.25.55,2.13-.14,2.96-.99,1.36-1.39,2.74-2.77,4.17-4.22.48.42.79.7,1.11.97Z"/>
</svg>