<?xml version="1.0" encoding="UTF-8"?>
<svg id="Layer_1" data-name="Layer 1" xmlns="http://www.w3.org/2000/svg" viewBox="0 0 128 128">
  <defs>
    <style>
      .cls-1 {
        fill: #3a3b42;
        stroke-width: 0px;
      }
    </style>
  </defs>
  <path class="cls-1" d="M89.41,53.15l15.99,15.99-46.57,46.53c-.38.43-.94.64-1.49.64h-12.97c-1.19,0-2.13-.94-2.13-2.13v-12.97c0-.6.21-1.11.64-1.54l8.63-8.63,7.18-7.18,23.3-23.3,7.18-7.18.25-.25ZM117.77,50.77l-9.98-9.98c-1.66-1.66-4.35-1.66-6.01,0l-7.81,7.81,15.99,15.99,7.8-7.81c1.66-1.66,1.66-4.35,0-6.01ZM47.84,44.47c-1.92,0-3.49,1.57-3.49,3.49v13.96c0,1.92,1.57,3.49,3.49,3.49s3.49-1.57,3.49-3.49v-13.96c0-1.92-1.57-3.49-3.49-3.49ZM44.35,30.51h6.98v6.98h-6.98v-6.98ZM52.13,75.55l-7.18,7.18c-17.93-1.48-32.01-16.49-32.01-34.77,0-19.27,15.64-34.9,34.94-34.9,18.29,0,33.27,14.1,34.74,32.01l-7.18,7.18c.22-1.4.33-2.83.33-4.29,0-15.43-12.49-27.92-27.92-27.92s-27.92,12.49-27.92,27.92,12.49,27.92,27.92,27.92c1.46,0,2.89-.11,4.29-.33Z"/>
</svg>