<?xml version="1.0" encoding="UTF-8"?>
<svg id="Layer_1" data-name="Layer 1" xmlns="http://www.w3.org/2000/svg" viewBox="0 0 128 128">
  <defs>
    <style>
      .cls-1 {
        fill: #3a3b42;
        stroke-width: 0px;
      }
    </style>
  </defs>
  <path class="cls-1" d="M42.8,47.93h-17.37c-4.79,0-8.68-3.89-8.68-8.68v-17.37c0-4.79,3.89-8.68,8.68-8.68h17.37c4.79,0,8.68,3.89,8.68,8.68v17.37c0,4.79-3.89,8.68-8.68,8.68ZM42.8,21.88h-17.37v17.37s17.37,0,17.37,0v-17.37ZM86.22,47.93h-17.37c-4.79,0-8.68-3.89-8.68-8.68v-17.37c0-4.79,3.89-8.68,8.68-8.68h17.37c4.79,0,8.68,3.89,8.68,8.68v17.37c0,4.79-3.89,8.68-8.68,8.68ZM86.22,21.88h-17.38v17.37s17.37,0,17.37,0v-17.37ZM42.8,91.35h-17.37c-4.79,0-8.68-3.89-8.68-8.68v-17.37c0-4.79,3.89-8.68,8.68-8.68h17.37c4.79,0,8.68,3.89,8.68,8.68v17.37c0,4.79-3.89,8.68-8.68,8.68ZM42.8,65.3h-17.37v17.37h17.37v-17.37ZM38.97,25.11h-10.39v10.39h10.39v-10.39ZM109.86,67.02c-11.62-11.62-30.45-11.62-42.07,0-11.62,11.62-11.62,30.45,0,42.07,11.62,11.62,30.45,11.62,42.07,0,11.62-11.62,11.62-30.45,0-42.07ZM93.34,100.01l-.03.03-4.49-4.49-3.5,3.5-.04-.04c-.15.19-.31.38-.49.56-2.07,2.07-5.43,2.07-7.5,0-2.07-2.07-2.07-5.43,0-7.5.18-.18.37-.34.56-.49l-.04-.04,3.5-3.5-3.5-3.5.04-.04c-.19-.15-.38-.31-.56-.49-2.07-2.07-2.07-5.43,0-7.5s5.43-2.07,7.5,0c.18.18.34.37.49.56l.04-.04,3.5,3.5,4.49-4.49.03.03c2.08-1.62,5.09-1.48,7,.43,1.91,1.91,2.06,4.93.43,7l.03.03-4.49,4.49,4.49,4.49-.03.03c1.62,2.08,1.48,5.09-.43,7s-4.93,2.06-7,.43Z"/>
</svg>