<?xml version="1.0" encoding="UTF-8"?>
<svg id="Layer_1" data-name="Layer 1" xmlns="http://www.w3.org/2000/svg" viewBox="0 0 128 128">
  <defs>
    <style>
      .cls-1 {
        fill: #3a3b42;
        stroke-width: 0px;
      }
    </style>
  </defs>
  <path class="cls-1" d="M7.17,26.98c3.04-10.22,9.45-17.01,20.13-19,7.68-1.43,14.66.56,20.75,5.5.35.29.7.58,1.05.86.05.04.13.06.31.13,1.15-1.12,2.34-2.27,3.53-3.41.35-.34.7-.69,1.1-.98,1.18-.85,2.66-.31,3.01,1.1.11.43.12.9.12,1.35,0,4.45.01,8.91,0,13.36,0,2.15-.69,2.83-2.86,2.84-4.42.01-8.83.04-13.25-.03-.76-.01-1.68-.27-2.24-.75-.92-.78-.81-1.9.04-2.79,1.2-1.25,2.43-2.48,3.64-3.72.26-.26.51-.54.76-.81-5.28-5.08-13.59-5.95-20.07-2.15-3.43,2.01-5.82,4.89-7.13,8.61-.46,1.3-1.18,1.74-2.51,1.66-1.65-.1-3.32-.01-4.98-.03-1.33-.01-1.75-.52-1.39-1.76ZM116.29,97.56l-3.55,6.04c-1.78,3.2-6.04,4.62-9.59,2.49l-4.26-2.49c-4.62-2.84-10.66.71-10.66,6.04v4.62c0,3.91-3.2,7.11-7.11,7.11h-7.11c-3.91,0-7.11-3.2-7.11-7.11v-4.97c0-5.33-6.04-8.88-10.66-6.04l-4.26,2.13c-3.2,2.13-7.46,1.07-9.59-2.49l-3.55-6.04c-2.13-3.2-1.07-7.46,2.49-9.59l4.26-2.49c4.62-2.49,4.62-9.59,0-12.08l-4.26-2.49c-3.2-2.13-4.26-6.4-2.49-9.95l2.19-3.72c-1.47.55-3.03,1.01-4.71,1.33-7.78,1.5-14.8-.61-20.89-5.7-.29-.24-.57-.49-1-.88-1.3,1.32-2.55,2.57-3.78,3.83-.75.77-1.55,1.39-2.68.9-1.08-.48-1.32-1.44-1.32-2.53.01-4.53,0-9.06,0-13.59,0-1.94.74-2.66,2.68-2.66,4.57,0,9.14.02,13.7-.02,1.17-.01,1.97.38,2.4,1.47.41,1.06-.09,1.8-.84,2.48-1.41,1.3-2.79,2.64-4.24,4.01,2.69,2.52,5.62,3.94,8.98,4.51,7.42,1.26,15.43-2.88,18.25-10.27.84-2.19.91-2.16,3.3-2.16,1.4,0,2.79-.02,4.19,0,1.2.02,1.53.43,1.21,1.55-1.39,4.83-3.56,8.87-6.57,12.02.77.15,1.54.43,2.28.88l4.26,2.13c4.62,2.84,10.66-.71,10.66-6.04v-4.62c0-3.91,3.2-7.11,7.11-7.11h7.11c3.91,0,7.11,3.2,7.11,7.11v4.98c0,5.33,6.04,8.88,10.66,6.04l4.26-2.49c3.2-2.13,7.46-1.07,9.59,2.49l3.55,6.04c2.13,3.2,1.07,7.46-2.49,9.59l-4.26,2.49c-4.62,2.84-4.62,9.59,0,12.44l4.26,2.49c3.2,2.13,4.26,6.4,2.49,10.31ZM91.77,78.72c0-7.82-6.4-14.21-14.21-14.21s-14.21,6.4-14.21,14.21,6.4,14.21,14.21,14.21,14.21-6.4,14.21-14.21Z"/>
</svg>