<svg id="Layer_1" data-name="Layer 1" xmlns="http://www.w3.org/2000/svg" viewBox="0 0 129.26 129.26"><path d="M40.85,68c-6.51,0-11.76,4.87-11.76,10.9S34.34,89.8,40.85,89.8s11.71-4.86,11.71-10.86S47.31,68,40.85,68Zm0,0c-6.51,0-11.76,4.87-11.76,10.9S34.34,89.8,40.85,89.8s11.71-4.86,11.71-10.86S47.31,68,40.85,68Zm80.31-5.8a6.63,6.63,0,0,0,.7-9.15,7.35,7.35,0,0,0-1.67-1.67L87.41,21.09a7.94,7.94,0,0,0-10.71,0,6.65,6.65,0,0,0,0,9.92L97.14,49.94H57a8.32,8.32,0,0,0-2.45.39A35.49,35.49,0,0,0,40.85,47.6c-13.94,0-25.93,7.83-31.11,19L8,71.62a28.1,28.1,0,0,0-1,7.32c0,17.25,15.15,31.3,33.84,31.3s33.83-14,33.83-31.3A29.42,29.42,0,0,0,70.55,64H97.84L76.24,84a6.66,6.66,0,0,0,0,9.93,8.09,8.09,0,0,0,10.7,0Zm-80.31,34c-10.32,0-18.69-7.75-18.69-17.29s8.37-17.32,18.69-17.32S59.49,69.4,59.49,78.94,51.12,96.23,40.85,96.23Zm0-28.19c-6.51,0-11.76,4.87-11.76,10.9S34.34,89.8,40.85,89.8s11.71-4.86,11.71-10.86S47.31,68,40.85,68Z" style="fill:#3a3b42"/></svg>