<svg id="Layer_1" data-name="Layer 1" xmlns="http://www.w3.org/2000/svg" viewBox="0 0 128 128"><path d="M57,25.63l4.89,18.23a2,2,0,0,1-.53,2L48.87,58.35a2,2,0,0,1-2,.53L29.8,54.3a2,2,0,0,1-1.45-1.45L24.08,36.91a2.06,2.06,0,0,0-1.46-1.45L8.47,31.74a2,2,0,0,0-2.57,2h0a2.33,2.33,0,0,0,.07.53l8.66,32.32A2,2,0,0,0,16.08,68l35.83,9.6a2,2,0,0,0,2-.53s5.53-5.12,6.32-4.71c1.33.7,34.67,33.13,42.79,43.24,5.42,6.74,9.6,4.58,14.71-.4,5.45-5.32,6.31-9.58-.2-14.69-6.91-5.42-38.93-38-41.76-42.35-.53-.81,4.37-7.32,4.37-7.32a2.07,2.07,0,0,0,.53-2l-9.6-35.83A2,2,0,0,0,69.6,11.6L36.27,2.67a2,2,0,0,0-2.53,2.38l3.2,16.1Z" style="fill:#3a3b42"/></svg>