<svg id="Layer_1" data-name="Layer 1" xmlns="http://www.w3.org/2000/svg" viewBox="0 0 128 128"><path d="M119.35,26.38a5,5,0,0,0-4.89-4.31,4.79,4.79,0,0,0-1.84.36l-8.21,3.31a4.94,4.94,0,0,0-3,3.91l-1.15,8.49-7.28,3-6.22-4.81,1-7.69,11.86-4.29.86-12.3a4.93,4.93,0,0,0-6.79-4.9L74.39,15a5,5,0,0,0-3,3.9l-3,22.22A5,5,0,0,0,70,45.5c.44.45.89.93,1.28,1.37C70,48.59,68,51.33,65.45,54.7c-5.66-6.94-10.61-13.08-13.8-17.19l1.7-1.34h.35a8,8,0,0,0,4.69-1.59l2.39-1.79a7.72,7.72,0,0,0,3.12-5.08,6,6,0,0,0-1.18-4.6l-11-14.34a6.26,6.26,0,0,0-5-2.37A7.92,7.92,0,0,0,42,8l-2.4,1.78a7.78,7.78,0,0,0-3.12,5.09,7.23,7.23,0,0,0,0,1.39L18.33,30.57a7,7,0,0,0-4.74-1.79,7.44,7.44,0,0,0-4.46,1.48l-2.4,1.79A7.46,7.46,0,0,0,3.79,37a6.93,6.93,0,0,0,1.36,5.23L18.49,59.62a7,7,0,0,0,5.61,2.74,7.45,7.45,0,0,0,4.46-1.49L31,59.09a7.49,7.49,0,0,0,2.95-4.93,7.2,7.2,0,0,0-.1-2.54l2.44-1.93,5,6L53.49,70.44C41.86,85.63,28.86,102.31,27,104.16c-2.39,2.42-3.46,4.8-3.28,7.27.24,3.37,2.79,5.66,4.69,7.09s4.27,3,6.94,3c2.86,0,5.31-1.63,7.28-4.85S55.4,99.3,66,85.6c12.38,15,24,29.17,25.17,31.1,2,3.41,4.55,5.14,7.5,5.14h0c2.81,0,5.2-1.64,6.76-2.87,2.26-1.78,4.6-4,4.82-7.27.16-2.37-.84-4.65-3.07-7S91.63,86.5,78.11,70.12c3.86-4.93,7.07-9,8.93-11.31l1,.7a4.91,4.91,0,0,0,4.8.6l20.75-8.5a5,5,0,0,0,3-3.9l2.72-20A5,5,0,0,0,119.35,26.38Z" style="fill:#3a3b42"/></svg>