<?xml version="1.0" encoding="UTF-8"?>
<svg id="Layer_1" data-name="Layer 1" xmlns="http://www.w3.org/2000/svg" viewBox="0 0 128 128">
  <defs>
    <style>
      .cls-1, .cls-2 {
        stroke-width: 0px;
      }

      .cls-2 {
        fill: #b5b5b5;
      }
    </style>
  </defs>
  <g>
    <path class="cls-1" d="M60.34,76.7c-4.18.88-9.11,1.38-14.4,1.38-12.88,0-23.61-3-26.7-7.04-.58.76-.98,1.53-.98,2.35v9.39c0,5.18,12.39,9.39,27.67,9.39s27.67-4.21,27.67-9.39v-9.39c0-.82-.4-1.59-.98-2.35-1.82,2.38-6.29,4.4-12.3,5.66Z"/>
    <path class="cls-1" d="M72.64,52.27c-1.82,2.38-6.29,4.4-12.3,5.66-2.9.61-6.16,1.04-9.64,1.24-1.17.07-2.36.11-3.58.13-.39,0-.78,0-1.18,0-12.88,0-23.61-3-26.7-7.04-.22.29-.41.59-.54.89-.25.48-.43.96-.43,1.46v9.39c0,5.18,12.39,9.39,27.67,9.39,1.59,0,3.15-.05,4.66-.14,13.06-.75,23.01-4.61,23.01-9.25h0v-9.39c0-.5-.18-.98-.43-1.46-.14-.3-.32-.6-.54-.89Z"/>
    <path class="cls-1" d="M47.12,26.47c-.39,0-.78-.01-1.18-.01-15.28,0-27.67,4.2-27.67,9.39v9.39c0,5.18,12.39,9.39,27.67,9.39,1.59,0,3.15-.05,4.66-.14,13.06-.75,23.01-4.61,23.01-9.25h0v-4.69h0v-4.69c0-5.05-11.77-9.17-26.5-9.38ZM50.67,40.39c-1.14.08-2.33.13-3.55.15-.39,0-.78.01-1.18.01-10.19,0-18.45-2.1-18.45-4.69s8.26-4.69,18.45-4.69c.4,0,.79,0,1.18.01,9.64.15,17.27,2.19,17.27,4.68,0,1.21-1.81,2.32-4.78,3.15-2.36.66-5.45,1.15-8.94,1.38Z"/>
  </g>
  <g>
    <path class="cls-2" d="M76.64,69.48v4.68c.39,0,.78.01,1.18.01,15.28,0,27.67-4.21,27.67-9.39v-9.39c0-.82-.4-1.59-.98-2.35-3.09,4.04-13.82,7.04-26.7,7.04-.39,0-.79,0-1.18,0h0c0,.38-.07.75-.2,1.11v7.28c.12.33.2.66.2,1Z"/>
    <path class="cls-2" d="M77.82,8.47c-15.28,0-27.67,4.2-27.67,9.39v4.69h0c14.73.22,26.5,4.34,26.5,9.39v4.68c.39,0,.78.01,1.18.01,15.28,0,27.67-4.2,27.67-9.39v-9.39c0-5.18-12.4-9.39-27.67-9.39ZM77.82,22.55c-10.19,0-18.45-2.1-18.45-4.69s8.26-4.69,18.45-4.69,18.45,2.1,18.45,4.69-8.26,4.69-18.45,4.69Z"/>
    <path class="cls-2" d="M104.51,34.28c-3.09,4.04-13.82,7.04-26.7,7.04-.39,0-.79,0-1.18,0h0c0,.38-.07.75-.2,1.11v7.35c.12.31.2.62.2.93v4.68c.39,0,.78.01,1.18.01,15.28,0,27.67-4.21,27.67-9.39v-9.39c0-.5-.18-.98-.43-1.46-.14-.3-.32-.6-.54-.89Z"/>
  </g>
  <path class="cls-1" d="M63.55,102.44v9.7c0,.89.7,1.6,1.6,1.6h9.7c.41,0,.83-.16,1.12-.48l34.85-34.82-11.97-11.97-34.82,34.82c-.32.32-.48.7-.48,1.15ZM120.08,69.18c1.24-1.24,1.24-3.26,0-4.5l-7.47-7.47c-1.24-1.24-3.26-1.24-4.5,0l-5.84,5.84,11.97,11.97,5.84-5.84Z"/>
</svg>