<?xml version="1.0" encoding="UTF-8"?>
<svg id="Layer_1" data-name="Layer 1" xmlns="http://www.w3.org/2000/svg" viewBox="0 0 128 128">
  <defs>
    <style>
      .cls-1, .cls-2 {
        stroke-width: 0px;
      }

      .cls-2 {
        fill: #b5b5b5;
      }
    </style>
  </defs>
  <g>
    <g>
      <path class="cls-1" d="M53.95,77.69c-4.18.88-9.11,1.38-14.4,1.38-12.88,0-23.61-3-26.7-7.04-.58.76-.98,1.53-.98,2.35v9.39c0,5.18,12.39,9.39,27.67,9.39s27.67-4.21,27.67-9.39v-9.39c0-.82-.4-1.59-.98-2.35-1.82,2.38-6.29,4.4-12.3,5.66Z"/>
      <path class="cls-1" d="M66.25,53.26c-1.82,2.38-6.29,4.4-12.3,5.66-2.9.61-6.16,1.04-9.64,1.24-1.17.07-2.36.11-3.58.13-.39,0-.78,0-1.18,0-12.88,0-23.61-3-26.7-7.04-.22.29-.41.59-.54.89-.25.48-.43.96-.43,1.46v9.39c0,5.18,12.39,9.39,27.67,9.39,1.59,0,3.15-.05,4.66-.14,13.06-.75,23.01-4.61,23.01-9.25h0v-9.39c0-.5-.18-.98-.43-1.46-.14-.3-.32-.6-.54-.89Z"/>
      <path class="cls-1" d="M40.73,27.46c-.39,0-.78-.01-1.18-.01-15.28,0-27.67,4.2-27.67,9.39v9.39c0,5.18,12.39,9.39,27.67,9.39,1.59,0,3.15-.05,4.66-.14,13.06-.75,23.01-4.61,23.01-9.25h0v-4.69h0v-4.69c0-5.05-11.77-9.17-26.5-9.38ZM44.28,41.37c-1.14.08-2.33.13-3.55.15-.39,0-.78.01-1.18.01-10.19,0-18.45-2.1-18.45-4.69s8.26-4.69,18.45-4.69c.4,0,.79,0,1.18.01,9.64.15,17.27,2.19,17.27,4.68,0,1.21-1.81,2.32-4.78,3.15-2.36.66-5.45,1.15-8.94,1.38Z"/>
    </g>
    <g>
      <path class="cls-2" d="M70.25,70.47v4.68c.39,0,.78.01,1.18.01,15.28,0,27.67-4.21,27.67-9.39v-9.39c0-.82-.4-1.59-.98-2.35-3.09,4.04-13.82,7.04-26.7,7.04-.39,0-.79,0-1.18,0h0c0,.38-.07.75-.2,1.11v7.28c.12.33.2.66.2,1Z"/>
      <path class="cls-2" d="M71.42,9.46c-15.28,0-27.67,4.2-27.67,9.39v4.69h0c14.73.22,26.5,4.34,26.5,9.39v4.68c.39,0,.78.01,1.18.01,15.28,0,27.67-4.2,27.67-9.39v-9.39c0-5.18-12.4-9.39-27.67-9.39ZM71.42,23.54c-10.19,0-18.45-2.1-18.45-4.69s8.26-4.69,18.45-4.69,18.45,2.1,18.45,4.69-8.26,4.69-18.45,4.69Z"/>
      <path class="cls-2" d="M98.12,35.27c-3.09,4.04-13.82,7.04-26.7,7.04-.39,0-.79,0-1.18,0h0c0,.38-.07.75-.2,1.11v7.35c.12.31.2.62.2.93v4.68c.39,0,.78.01,1.18.01,15.28,0,27.67-4.21,27.67-9.39v-9.39c0-.5-.18-.98-.43-1.46-.14-.3-.32-.6-.54-.89Z"/>
    </g>
    <path class="cls-1" d="M76.86,61.64v7.76c0,.71.56,1.28,1.28,1.28h7.76c.33,0,.66-.13.89-.38l27.88-27.86-9.58-9.58-27.86,27.86c-.26.26-.38.56-.38.92ZM122.08,35.04c1-1,1-2.6,0-3.6l-5.98-5.98c-1-1-2.6-1-3.6,0l-4.67,4.67,9.58,9.58,4.67-4.67Z"/>
  </g>
  <path class="cls-1" d="M88.51,76.68c-12.06,0-21.83,9.77-21.83,21.83s9.77,21.83,21.83,21.83,21.83-9.77,21.83-21.83-9.77-21.83-21.83-21.83ZM97.06,102.36v.03h-4.66v3.63h-.04c.02.18.04.36.04.54,0,2.15-1.74,3.89-3.89,3.89s-3.89-1.74-3.89-3.89c0-.18.01-.37.04-.54h-.04v-3.63h-3.63v-.04c-.18.02-.36.04-.54.04-2.15,0-3.89-1.74-3.89-3.89s1.74-3.89,3.89-3.89c.18,0,.37.01.54.04v-.04h3.63v-4.66h.03c.24-1.92,1.87-3.41,3.86-3.41s3.62,1.49,3.86,3.41h.03v4.66h4.66v.03c1.92.24,3.41,1.87,3.41,3.86s-1.49,3.62-3.41,3.86Z"/>
</svg>