<svg id="Layer_1" data-name="Layer 1" xmlns="http://www.w3.org/2000/svg" viewBox="0 0 128 128"><path d="M124.33,19.8l-9.45,3.81a1.41,1.41,0,0,0-.88,1.13l-1.54,11.4a1.43,1.43,0,0,1-.88,1.12l-11.4,4.67a1.41,1.41,0,0,1-1.41-.19L89,34.2a1.4,1.4,0,0,1-.54-1.32l1.76-13L103.72,15l.79-11.41a1.42,1.42,0,0,0-2-1.42L80.32,11.27a1.46,1.46,0,0,0-.88,1.13L76,38a1.42,1.42,0,0,0,.54,1.31s4,4.07,3.66,4.68c-.48,1-5.19,7.38-11.64,15.91-9.85-12-18.4-22.67-21.94-27.42l6.8-5.38a4.3,4.3,0,0,0,4.34-.68l2.76-2.05C62.37,23,63,20.66,61.9,19.23L49.17,2.72c-1.09-1.41-3.44-1.44-5.29-.07L41.12,4.71c-1.88,1.39-2.51,3.71-1.4,5.14l.26.35-26.5,21L11.75,28.9a4.08,4.08,0,0,0-5.69-.61L3.3,30.34a4.08,4.08,0,0,0-1,5.71L17.68,56.11a4.08,4.08,0,0,0,5.69.62l2.76-2.06a4.07,4.07,0,0,0,1-5.71l-.51-.67,8.78-6.95c4,4.87,13.81,16.62,24.67,29.72C46.11,89.32,29.63,110.5,27.17,113c-4.05,4.1-3.08,7,1.16,10.17,4,3,7.05,4.12,10.2-1C41,118.07,55.63,99,69,81.82c15.84,19.15,31.3,38,32.76,40.46,2.94,5,6,4.75,10.13,1.46,3.9-3.08,5.77-5.78,1.59-10.13-3-3.07-19.71-23.06-35.93-42.75,8.12-10.37,14.34-18.21,14.65-18.42.5-.35,4.78,2.69,4.78,2.69a1.41,1.41,0,0,0,1.41.2l23.91-9.8a1.4,1.4,0,0,0,.87-1.13l3.14-23.09a2.29,2.29,0,0,0,0-.37A1.42,1.42,0,0,0,124.33,19.8Z" style="fill:#3a3b42"/></svg>