<svg id="Layer_1" data-name="Layer 1" xmlns="http://www.w3.org/2000/svg" viewBox="0 0 128 128"><path d="M33.44,21.15l-3.2-16.1a2,2,0,0,1,2.53-2.38L66.1,11.6a2,2,0,0,1,1.45,1.45l9.6,35.83a2.07,2.07,0,0,1-.53,2s-4.9,6.51-4.37,7.32c2.83,4.31,34.85,36.93,41.76,42.35,6.51,5.11,5.65,9.37.2,14.69-5.11,5-9.29,7.14-14.71.4C91.38,105.51,58,73.08,56.71,72.38c-.79-.41-6.32,4.71-6.32,4.71a2,2,0,0,1-2,.53L12.58,68a2,2,0,0,1-1.45-1.45L2.47,34.25a2.33,2.33,0,0,1-.07-.53h0a2,2,0,0,1,2.57-2l14.15,3.72a2.06,2.06,0,0,1,1.46,1.45l4.27,15.94A2,2,0,0,0,26.3,54.3l17.09,4.58a2,2,0,0,0,2-.53L57.88,45.84a2,2,0,0,0,.53-2L53.52,25.63ZM120.2,60,98.07,65.88,81.88,49.69l5.93-22.13,22.12-5.93,16.19,16.2Zm-8.51-8.5,2.81-10.51-7.68-7.68L96.31,36.07,93.5,46.57l7.69,7.69ZM91.55,21.78,79.67,25,71,16.27,74.16,4.39,86,1.2l8.7,8.7ZM87,17.21l1.51-5.64L84.37,7.44,78.73,9l-1.51,5.63,4.13,4.13Z" style="fill:#3a3b42"/></svg>