<svg id="Layer_1" data-name="Layer 1" xmlns="http://www.w3.org/2000/svg" viewBox="0 0 129.26 129.26"><path d="M117.69,65.73a6.75,6.75,0,0,0-5.6-3.15,13.21,13.21,0,0,0-6.24,1.52,42.25,42.25,0,0,0-7.3,5.81A43.43,43.43,0,0,0,95,74c-.71.85-1.38,1.7-2.09,2.52a7.39,7.39,0,0,1-1.28,1.09,9.14,9.14,0,0,1-.39-1.7,53.55,53.55,0,0,1-.07-6.52c.5-7.12,1-14.28,1.49-21.4l1-14.1c.29-4,.57-8.19-.81-12.3-1-2.9-2.87-4.53-5.56-4.78a6.2,6.2,0,0,0-6.52,3.76A20.22,20.22,0,0,0,79,26.08c-.47,2.91-.86,5.81-1.25,8.72-.31,2.2-.6,4.39-.92,6.56C76,47.13,75,52.87,74.14,57.73a3.73,3.73,0,0,1-.18.63,5.71,5.71,0,0,1-.14-.56l-.07-.64c-.32-2.84-.64-5.78-.81-8.65-.22-3.29-.39-6.62-.57-9.92-.28-5.67-.57-11.51-1-17.25a52.56,52.56,0,0,0-2.27-11.09,6.07,6.07,0,0,0-6.55-4.72,6.67,6.67,0,0,0-6.56,5,23.07,23.07,0,0,0-1.13,7c.14,5.6.46,11.27.74,16.76l.25,4.71c.11,2.27.25,4.57.39,6.87.18,3.65.39,7.27.57,10.92,0,.71,0,1.42-.11,2.16a8,8,0,0,1-.42-1.28c-.89-3.65-1.74-7.3-2.59-10.94-.53-2.31-1.1-4.65-1.63-7l-.92-4c-1.06-4.54-2.16-9.25-3.44-13.82a16.34,16.34,0,0,0-3-5.39,5.87,5.87,0,0,0-6.56-2,6.31,6.31,0,0,0-4.74,5.1,16.23,16.23,0,0,0-.14,5.07c.63,4.46,1.45,9.14,2.37,13.89.81,4.21,1.7,8.43,2.55,12.61.78,3.76,1.52,7.51,2.27,11.27a5.57,5.57,0,0,1,.07,1.49c-.11-.18-.25-.36-.32-.5-1.28-2.62-2.44-5.21-3.4-7.41-.67-1.55-1.35-3.15-2-4.74-1.21-2.77-2.38-5.53-3.65-8.26a16.24,16.24,0,0,0-2.87-4.22,6.43,6.43,0,0,0-5.92-2A6.26,6.26,0,0,0,17.77,41a9.45,9.45,0,0,0-.46,5,54.74,54.74,0,0,0,2.62,9.46,252.39,252.39,0,0,1,10.56,34.2,74.79,74.79,0,0,0,7.26,20.09C41.9,117.4,48,122,55.86,123.31a48.19,48.19,0,0,0,8.64.78c1,0,2,0,3-.1,11.31-.71,20.2-5.64,26.44-14.6a72.37,72.37,0,0,0,5.49-8.83,115.09,115.09,0,0,1,15.17-22.78,25.3,25.3,0,0,0,3.57-5.53A6.79,6.79,0,0,0,117.69,65.73Zm-75.12,3A3.54,3.54,0,0,0,44.73,65a79.8,79.8,0,0,0-1.06-8.79c-1-4.89-2-9.81-3-14.7q-1.55-7.61-3-15.2a27.14,27.14,0,0,1-.21-5.53,2.32,2.32,0,0,1,1.92-2.2,2,2,0,0,1,2.4,1,19.1,19.1,0,0,1,2.41,5c1.07,4.25,2,8.61,3,12.82.57,2.55,1.13,5.07,1.74,7.62C49.8,49,51,54.18,52.42,59.43a10.15,10.15,0,0,0,1.95,3.93,3.91,3.91,0,0,0,3.33,1.52,3.93,3.93,0,0,0,2.62-2.65A27.61,27.61,0,0,0,61,55.88c-.11-3-.53-10.7-1-18.14s-.89-15.45-1-18.57a39,39,0,0,1,.42-5.38l.07-.32a6.65,6.65,0,0,1,.78-2.27,2.68,2.68,0,0,1,2.69-1.45,1.89,1.89,0,0,1,2,1.38l.39,1.24a28.15,28.15,0,0,1,1.49,6.27c.5,6,.85,12.12,1.21,18,.21,3.47.42,7,.63,10.45s.61,7,1,11.2a9.3,9.3,0,0,0,.89,3,3.7,3.7,0,0,0,3.19,2.16A3.59,3.59,0,0,0,77,61.73a11.6,11.6,0,0,0,1.55-4.11c.71-4.22,1.32-8.43,2-12.65l1.21-8.19c.56-3.86,1.13-7.72,1.8-11.58a10.06,10.06,0,0,1,1.07-2.8c.78-1.42,1.7-1.49,2.3-1.42a2.11,2.11,0,0,1,1.88,1.7,24.59,24.59,0,0,1,.89,5.6c0,2.62-.22,5.35-.43,8l-.14,2.38c-.21,3.22-.46,6.41-.68,9.63-.49,7.23-1,14.5-1.41,21.76a42.67,42.67,0,0,0,.46,8.75A4.16,4.16,0,0,0,90,82.35,4.39,4.39,0,0,0,94.44,81a22.25,22.25,0,0,0,2.31-2.55c.42-.53.88-1.06,1.34-1.56l1.74-2a48.25,48.25,0,0,1,5-5.17,20.08,20.08,0,0,1,5.81-3,2.93,2.93,0,0,1,3.4,1.24,2.53,2.53,0,0,1-.07,3.22,38.93,38.93,0,0,1-3.43,4.82A110.15,110.15,0,0,0,96.11,97.87a83.58,83.58,0,0,1-5.39,8.79c-5.45,8-13.57,12.51-24.06,13.22a34.54,34.54,0,0,1-12-1.14c-6-1.73-10.45-5.6-13.68-11.83a78.82,78.82,0,0,1-6.63-19.17A261.86,261.86,0,0,0,23.75,53.62a61.72,61.72,0,0,1-1.73-6c-.21-.85-.39-1.67-.64-2.48a4.35,4.35,0,0,1,0-1c0-1.67.77-3,1.84-3.22a2.32,2.32,0,0,1,.53,0A2.58,2.58,0,0,1,26,42.67c2.16,4.28,4.18,8.71,5.88,12.54.6,1.28,1.13,2.59,1.66,3.9.64,1.56,1.28,3.15,2,4.71a16.86,16.86,0,0,0,2.59,3.79A3.77,3.77,0,0,0,42.57,68.71Z" style="fill:#3a3b42"/></svg>