<?xml version="1.0" encoding="UTF-8"?>
<svg id="Layer_1" data-name="Layer 1" xmlns="http://www.w3.org/2000/svg" viewBox="0 0 128 128">
  <defs>
    <style>
      .cls-1 {
        fill: #3a3b42;
        stroke: #3a3b42;
        stroke-width: 3px;
      }

      .cls-1, .cls-2 {
        stroke-miterlimit: 10;
      }

      .cls-3 {
        fill: #fff;
      }

      .cls-3, .cls-4 {
        stroke-width: 0px;
      }

      .cls-2 {
        fill: none;
        stroke: red;
        stroke-width: 10px;
      }

      .cls-4 {
        fill: #a5a5a5;
      }
    </style>
  </defs>
  <path class="cls-4" d="M51.23,11.53h53.62c6.12,0,11.08,4.97,11.08,11.08v82.77c0,6.12-4.97,11.08-11.08,11.08h-53.62V11.53h0Z"/>
  <rect class="cls-2" x="10.99" y="11.53" width="104.94" height="104.94" rx="11.08" ry="11.08"/>
  <circle class="cls-3" cx="99.71" cy="31.46" r="24.46"/>
  <path class="cls-1" d="M96.88,60.85c-15.31,0-27.77-12.46-27.77-27.77s12.46-27.77,27.77-27.77,27.77,12.46,27.77,27.77-12.46,27.77-27.77,27.77ZM96.88,10.85c-12.25,0-22.22,9.97-22.22,22.22s9.97,22.22,22.22,22.22,22.22-9.97,22.22-22.22-9.97-22.22-22.22-22.22ZM107.18,43.37c1.08-1.08,1.08-2.84,0-3.93l-7.52-7.52v-12.74c0-1.53-1.24-2.78-2.78-2.78s-2.78,1.24-2.78,2.78v13.89c0,.74.29,1.44.81,1.96l8.33,8.33c.54.54,1.25.81,1.96.81s1.42-.27,1.96-.81Z"/>
</svg>