<?xml version="1.0" encoding="UTF-8"?>
<svg id="Layer_1" data-name="Layer 1" xmlns="http://www.w3.org/2000/svg" viewBox="0 0 128 128">
  <defs>
    <style>
      .cls-1 {
        fill: #fff;
      }

      .cls-1, .cls-2 {
        stroke-width: 0px;
      }

      .cls-2 {
        fill: #1211ff;
      }
    </style>
  </defs>
  <rect class="cls-2" x="11.53" y="9.81" width="107.23" height="107.23" rx="7.92" ry="7.92"/>
  <path class="cls-1" d="M107.64,90.1l-8.26-6.95-6.44-5.41c-1.62-1.36-4.09-.21-4.09,1.91v7.39h-46.02c-2.32,0-4.19-1.88-4.19-4.19v-43.57c0-2.31,1.88-4.19,4.19-4.19h50.04c2.32,0,4.19,1.88,4.19,4.19v11.63c0,1.29,1.04,2.33,2.33,2.33h5.34c1.29,0,2.33-1.04,2.33-2.33v-21.63c0-2.31-1.88-4.19-4.19-4.19H32.83c-2.32,0-4.19,1.88-4.19,4.19v63.57c0,2.31,1.88,4.19,4.19,4.19h56.02v7.33c0,2.12,2.47,3.27,4.09,1.91l6.44-5.41,8.26-6.95c1.18-1,1.18-2.82,0-3.81Z"/>
</svg>