<svg id="Layer_1" data-name="Layer 1" xmlns="http://www.w3.org/2000/svg" viewBox="0 0 129.26 129.26"><path d="M42.19,44.51a26.05,26.05,0,0,0-5.63.45V61.62a21.4,21.4,0,0,0,4.95.46c7.17,0,11.57-3.27,11.57-9.17C53.08,47.28,48.77,44.51,42.19,44.51Zm0,0a26.05,26.05,0,0,0-5.63.45V61.62a21.4,21.4,0,0,0,4.95.46c7.17,0,11.57-3.27,11.57-9.17C53.08,47.28,48.77,44.51,42.19,44.51Zm74.14-17.75a14.4,14.4,0,0,0-14.39-14.4H26.3a14.4,14.4,0,0,0-14.39,14.4v75.63a14.4,14.4,0,0,0,14.39,14.4h75.64a14.4,14.4,0,0,0,14.39-14.4Zm-75,39.77a22.38,22.38,0,0,1-4.81-.37V83.33h-6V41a72.76,72.76,0,0,1,11.44-.82c5.9,0,10.22,1.27,12.94,3.54a11.2,11.2,0,0,1,4,9,12,12,0,0,1-3.59,9.13C52.31,64.94,47.18,66.53,41.37,66.53ZM61.89,84A4,4,0,1,1,62,76a4,4,0,1,1-.09,8ZM100.57,45.1H81.69V59.35H99.12v4.54H81.69V83.33h-6V40.47h24.88Zm-58.38-.59a26.05,26.05,0,0,0-5.63.45V61.62a21.4,21.4,0,0,0,4.95.46c7.17,0,11.57-3.27,11.57-9.17C53.08,47.28,48.77,44.51,42.19,44.51Zm0,0a26.05,26.05,0,0,0-5.63.45V61.62a21.4,21.4,0,0,0,4.95.46c7.17,0,11.57-3.27,11.57-9.17C53.08,47.28,48.77,44.51,42.19,44.51Zm0,0a26.05,26.05,0,0,0-5.63.45V61.62a21.4,21.4,0,0,0,4.95.46c7.17,0,11.57-3.27,11.57-9.17C53.08,47.28,48.77,44.51,42.19,44.51Z" style="fill:#3a3b42"/></svg>