<svg id="Layer_1" data-name="Layer 1" xmlns="http://www.w3.org/2000/svg" viewBox="0 0 129.26 129.26"><path d="M44,51.08a6.51,6.51,0,0,1,2.29,5.46c0,2.78-.89,4.76-2.66,5.92s-4.39,1.74-7.86,1.74H32.07V49.27h4.8C40.12,49.27,42.5,49.88,44,51.08Zm39.3-2.32q-6.52,0-9.55,4.17t-3,11.5q0,7.32,3,11.56t9.49,4.23q6.52,0,9.5-4.23t3-11.56q0-7.32-3-11.5T83.32,48.76Zm33-22.78v77.19a13.62,13.62,0,0,1-13.62,13.62H25.48a13.62,13.62,0,0,1-13.62-13.62V26A13.62,13.62,0,0,1,25.48,12.36h77.18A13.62,13.62,0,0,1,116.28,26ZM51.14,62.72a14,14,0,0,0,1.52-6.41q0-5.78-3.66-9T37.33,44.07H25.89V84.91h6.18V69.41h4.4c4,0,7.25-.62,9.61-1.86A11.31,11.31,0,0,0,51.14,62.72Zm8.61,18.81a3.76,3.76,0,0,0-1.17-3.14,4.38,4.38,0,0,0-2.77-.92,4.27,4.27,0,0,0-2.75.92,3.82,3.82,0,0,0-1.14,3.14,4,4,0,0,0,1.14,3.21,4.14,4.14,0,0,0,2.75,1,4.25,4.25,0,0,0,2.77-1A4,4,0,0,0,59.75,81.53Zm42.5-17.1a26.89,26.89,0,0,0-2.12-11.07A16.16,16.16,0,0,0,93.81,46a19.63,19.63,0,0,0-10.49-2.6A20.26,20.26,0,0,0,72.57,46a15.83,15.83,0,0,0-6.3,7.32,27.41,27.41,0,0,0-2.06,11,27.73,27.73,0,0,0,2.06,11.1,15.93,15.93,0,0,0,6.3,7.38,20,20,0,0,0,10.69,2.63,19.59,19.59,0,0,0,10.52-2.63,16.23,16.23,0,0,0,6.35-7.35A26.89,26.89,0,0,0,102.25,64.43Z" style="fill:#3a3b42"/></svg>