<svg id="Layer_1" data-name="Layer 1" xmlns="http://www.w3.org/2000/svg" viewBox="0 0 128 128"><path d="M120.85,100.5v3.73c-.09.38-.19.76-.28,1.15-.84,3.62-1.86,7.18-4.73,9.76-8,7.25-17.42,4.39-22.69-1.48C80.63,99.73,68.43,85.52,56.1,71.43c-2.68-3.07-5.37-6.13-8.07-9.21L47,63c-7.39,5.85-16,6-23.55.41A31.94,31.94,0,0,1,11.38,44.71,28.78,28.78,0,0,1,12.49,26.8a1.49,1.49,0,0,1,.39.22c4.39,4.58,8.8,9.14,13.16,13.76,1.84,1.94,3.83,3.45,6.67,3.27a9.23,9.23,0,0,0,6.06-3.27c1.67-1.72,3.17-3.63,5-5.18a6,6,0,0,0,2-2.68,6.47,6.47,0,0,0,.44-3.42,9.26,9.26,0,0,0-2.26-3.66c-4.62-4.79-9.35-9.48-14.06-14.18A4.93,4.93,0,0,0,28.58,11l.43-.52a13.93,13.93,0,0,1,1.49-.53c2.41-.55,4.83-1.07,7.25-1.6h5.06a2.75,2.75,0,0,0,.61.21,31.51,31.51,0,0,1,21,11.23c6.67,7.66,7.12,16.81,1.22,24.55-.43.56-.87,1.1-1.32,1.67.34.32.63.6.93.87q25.52,22.65,51.06,45.29a13.23,13.23,0,0,1,4.16,7.07Zm-22.43,2.12a6.26,6.26,0,0,0,6.2,6.32,6.29,6.29,0,0,0,.06-12.57A6.24,6.24,0,0,0,98.42,102.62ZM36.41,120c-3.37,0-6.74,0-10.11,0a1.75,1.75,0,0,1-1.79-1q-5.11-9-10.32-18a1.55,1.55,0,0,1,0-1.81q5.24-9,10.39-18.09a1.55,1.55,0,0,1,1.55-.92q10.38,0,20.76,0a1.55,1.55,0,0,1,1.57.89c3.46,6.09,7,12.14,10.42,18.24a2,2,0,0,1,0,1.62c-3.4,6-6.87,12-10.28,18a1.72,1.72,0,0,1-1.76,1C43.33,120,39.87,120,36.41,120Zm10-19.82a9.87,9.87,0,1,0-10,9.87A9.86,9.86,0,0,0,46.37,100.21Z" style="fill:#3a3b42"/></svg>