<svg id="Layer_1" data-name="Layer 1" xmlns="http://www.w3.org/2000/svg" viewBox="0 0 129.26 129.26"><path d="M36.93,47.79a20.85,20.85,0,0,0-5.24.52v15h5.45c5.67,0,9.29-3.1,9.29-7.8C46.43,50.19,42.55,47.87,36.93,47.79Zm0,0a20.85,20.85,0,0,0-5.24.52v15h5.45c5.67,0,9.29-3.1,9.29-7.8C46.43,50.19,42.55,47.87,36.93,47.79Zm83,26.38a58.06,58.06,0,0,0,.87-9.59,56.69,56.69,0,1,0-113.37,0,58.06,58.06,0,0,0,.87,9.59l1.27,5.62a56.61,56.61,0,0,0,109.1,0ZM47.7,85.2C47,84,46.13,80.49,45,75.35c-1.22-5.67-3.45-7.81-8.24-8h-5V85.2H26.37V44.56a58.53,58.53,0,0,1,10.21-.83c5.67,0,9.33,1,11.9,3.36a10.15,10.15,0,0,1,3.23,7.8A10.79,10.79,0,0,1,44,65.4v.18c3.14,1.09,5.06,4,6,8.33,1.35,5.71,2.31,9.68,3.18,11.29Zm15.48.65a3.84,3.84,0,0,1,.08-7.67,3.84,3.84,0,0,1-.08,7.67Zm31.35-4.49a21.13,21.13,0,0,0,8.68-1.74l1.09,4.23a26.88,26.88,0,0,1-10.91,2C81.8,85.81,73.07,78.49,73.07,65c0-12.87,8.73-21.63,21.5-21.63,5.15,0,8.37,1.09,9.77,1.83l-1.27,4.36a18.94,18.94,0,0,0-8.32-1.74c-9.64,0-16,6.19-16,17C78.7,74.87,84.5,81.36,94.53,81.36ZM36.93,47.79a20.85,20.85,0,0,0-5.24.52v15h5.45c5.67,0,9.29-3.1,9.29-7.8C46.43,50.19,42.55,47.87,36.93,47.79Z" style="fill:#3a3b42"/></svg>