<svg id="Layer_1" data-name="Layer 1" xmlns="http://www.w3.org/2000/svg" viewBox="0 0 129.26 129.26"><path d="M35.36,47.69a20.23,20.23,0,0,0-5.17.52V63h5.38c5.6,0,9.18-3.05,9.18-7.7C44.75,50.06,40.91,47.78,35.36,47.69Zm49.52.13a29.75,29.75,0,0,0-6.16.56V80.47a32.38,32.38,0,0,0,5.3.3c11.24,0,17.31-6.29,17.31-17.27C101.42,53.94,96,47.82,84.88,47.82Zm-28.81,75.8a11.47,11.47,0,0,0,16.15,0L125.28,70a11.4,11.4,0,0,0-1.81-13.74L72.22,4.93a11.38,11.38,0,0,0-16.15,0L4.78,56.22A11.43,11.43,0,0,0,3,70ZM46,84.64c-.64-1.16-1.55-4.65-2.71-9.73-1.2-5.6-3.4-7.71-8.14-7.88H30.19V84.64H24.94V44.51A57.09,57.09,0,0,1,35,43.69c5.6,0,9.22,1,11.76,3.31A10,10,0,0,1,50,54.71a10.66,10.66,0,0,1-7.63,10.38v.17c3.1,1.08,5,4,6,8.23,1.33,5.64,2.28,9.56,3.14,11.15Zm15.29.65a3.8,3.8,0,0,1,.09-7.58A3.49,3.49,0,0,1,64.9,81.5,3.53,3.53,0,0,1,61.28,85.29ZM101,79.13C97.2,83,90.91,85,83,85a83.2,83.2,0,0,1-9.52-.48v-40a75.9,75.9,0,0,1,11.15-.82c7.54,0,12.92,1.72,16.5,5s5.72,8.05,5.72,14.6S104.78,75.38,101,79.13ZM84.88,47.82a29.75,29.75,0,0,0-6.16.56V80.47a32.38,32.38,0,0,0,5.3.3c11.24,0,17.31-6.29,17.31-17.27C101.42,53.94,96,47.82,84.88,47.82Zm-49.52-.13a20.23,20.23,0,0,0-5.17.52V63h5.38c5.6,0,9.18-3.05,9.18-7.7C44.75,50.06,40.91,47.78,35.36,47.69Zm0,0a20.23,20.23,0,0,0-5.17.52V63h5.38c5.6,0,9.18-3.05,9.18-7.7C44.75,50.06,40.91,47.78,35.36,47.69Zm49.52.13a29.75,29.75,0,0,0-6.16.56V80.47a32.38,32.38,0,0,0,5.3.3c11.24,0,17.31-6.29,17.31-17.27C101.42,53.94,96,47.82,84.88,47.82Z" style="fill:#3a3b42"/></svg>