<svg id="Layer_1" data-name="Layer 1" xmlns="http://www.w3.org/2000/svg" viewBox="0 0 129.26 129.26"><path d="M73.24,54.27a6.31,6.31,0,0,1-2.86,5.63c-1.9,1.26-5,1.9-9.44,1.9H56.63V47.13h4q6.42,0,9.49,1.63A5.74,5.74,0,0,1,73.24,54.27ZM118,17.77v93.72a6.53,6.53,0,0,1-6.52,6.52H17.77a6.53,6.53,0,0,1-6.52-6.52V17.77a6.53,6.53,0,0,1,6.52-6.52h93.72A6.53,6.53,0,0,1,118,17.77ZM93.45,92,75,68.33a26.35,26.35,0,0,0,5.75-3.15,15.36,15.36,0,0,0,4.31-4.71A12.67,12.67,0,0,0,86.68,54q0-8.2-6.1-12.24t-18.94-4H43.36V92H56.63V71.14h7.12L78.69,92Z" style="fill:#3a3b42"/></svg>