<svg id="Layer_1" data-name="Layer 1" xmlns="http://www.w3.org/2000/svg" viewBox="0 0 129.26 129.26"><path d="M119.61,62.2a10.31,10.31,0,0,1-1.13,1.62c-6.86,8.25-15.81,11.74-26.4,11.26-6.23-.29-12.45-.76-18.66-1.31C59.5,72.52,54,73.57,41.78,80.59A1.21,1.21,0,0,1,40,79.87C35.6,64,30.74,47.11,26.67,31.36c-.44-1.7,4.58-6.13,6.74-7,5.41-2.21,7-2.69,12.67-3.07,8.86-.58,17.84.87,26.78,1.13,11.26.32,22.38-.06,29.47-11a1.27,1.27,0,0,1,.8-.54c1.89,0,1.37,1.84,1.4,2.25-.7,6.63-1.51,11.64-2.77,18.16C98.21,49.58,98.26,50,115,59c.14.08,3,1.42,4.17,2A.93.93,0,0,1,119.61,62.2ZM43.1,118a4.58,4.58,0,0,0,2.25-4.71,50.62,50.62,0,0,0-1.56-5.85c-6.47-24-13.27-47.9-19.81-71.87-1.56-5.71-4-7.29-7.71-5.78-3.4,1.52-2.35,5.37-2.13,6.36.27,1.19,16.36,56.26,22.9,79.7C37.64,117.77,40,119.15,43.1,118Z" style="fill:#3a3b42"/></svg>