<?xml version="1.0" encoding="UTF-8"?>
<svg id="Layer_1" data-name="Layer 1" xmlns="http://www.w3.org/2000/svg" viewBox="0 0 128 128">
  <defs>
    <style>
      .cls-1 {
        fill: #36ffff;
      }

      .cls-1, .cls-2 {
        stroke-width: 0px;
      }

      .cls-2 {
        fill: #ff113b;
      }
    </style>
  </defs>
  <path class="cls-1" d="M67.66,24.1H21.03c-5.26,0-9.56,4.3-9.56,9.56v56.19c0,5.26,4.3,9.56,9.56,9.56h76.47c5.26,0,9.56-4.3,9.56-9.56l-.05-65.75c0-5.26-.82-9.56-6.08-9.56l-28.73.36c-2.57.04-4.63,2.15-4.6,4.72l.06,4.48ZM19.16,86.21v-48.91c0-2.76,2.26-5.01,5.01-5.01h70.19c2.76,0,5.01,2.26,5.01,5.01v48.91c0,2.76-2.26,5.01-5.01,5.01H24.18c-2.76,0-5.01-2.26-5.01-5.01ZM27.63,45.98c0-2.5,1.94-4.52,4.32-4.52h54.83c2.39,0,4.32,2.02,4.32,4.52s-1.94,4.52-4.32,4.52H31.95c-2.39,0-4.32-2.02-4.32-4.52ZM86.79,57.8H31.95c-2.39,0-4.32,2.02-4.32,4.52s1.94,4.52,4.32,4.52h54.83c2.39,0,4.32-2.02,4.32-4.52s-1.94-4.52-4.32-4.52ZM86.79,74.05H31.95c-2.39,0-4.32,2.02-4.32,4.52s1.94,4.52,4.32,4.52h54.83c2.39,0,4.32-2.02,4.32-4.52s-1.94-4.52-4.32-4.52Z"/>
  <path class="cls-2" d="M58.24,97.32h0v-.26h0c0-3.5,2.83-6.33,6.31-6.33h30.41l-8.19-8.19c-2.49-2.48-2.48-6.52.02-9.02h.01c2.49-2.5,6.53-2.51,9.02-.03l21.37,21.37s1.58,1.3,1.58,2.31c0,1.13-1.58,2.31-1.58,2.31l-21.37,21.37c-2.48,2.48-6.52,2.48-9.02-.01h-.01c-2.49-2.5-2.5-6.54-.02-9.03l8.19-8.19h-30.41c-3.48,0-6.3-2.83-6.31-6.32h0Z"/>
</svg>