<?xml version="1.0" encoding="UTF-8"?>
<svg id="Layer_1" data-name="Layer 1" xmlns="http://www.w3.org/2000/svg" viewBox="0 0 128 128">
  <defs>
    <style>
      .cls-1 {
        fill: #858689;
      }

      .cls-1, .cls-2, .cls-3 {
        stroke-width: 0px;
      }

      .cls-2 {
        fill: none;
      }

      .cls-3 {
        fill: #d3d3d3;
      }
    </style>
  </defs>
  <path class="cls-2" d="M99.53,38.49H29.34c-2.76,0-5.01,2.26-5.01,5.01v48.91c0,2.76,2.26,5.01,5.01,5.01h70.19c2.76,0,5.01-2.26,5.01-5.01v-48.91c0-2.76-2.26-5.01-5.01-5.01ZM91.95,89.29h-54.83c-2.39,0-4.32-2.02-4.32-4.52s1.94-4.52,4.32-4.52h54.83c2.39,0,4.32,2.02,4.32,4.52s-1.94,4.52-4.32,4.52ZM91.95,73.04h-54.83c-2.39,0-4.32-2.02-4.32-4.52s1.94-4.52,4.32-4.52h54.83c2.39,0,4.32,2.02,4.32,4.52s-1.94,4.52-4.32,4.52ZM91.95,56.7h-54.83c-2.39,0-4.32-2.02-4.32-4.52s1.94-4.52,4.32-4.52h54.83c2.39,0,4.32,2.02,4.32,4.52s-1.94,4.52-4.32,4.52Z"/>
  <path class="cls-3" d="M91.95,47.66h-54.83c-2.39,0-4.32,2.02-4.32,4.52s1.94,4.52,4.32,4.52h54.83c2.39,0,4.32-2.02,4.32-4.52s-1.94-4.52-4.32-4.52Z"/>
  <path class="cls-1" d="M106.11,20.74l-28.73.36c-2.57.04-4.63,2.15-4.6,4.72l.06,4.48H26.2c-5.26,0-9.56,4.3-9.56,9.56v56.19c0,5.26,4.3,9.56,9.56,9.56h76.47c5.26,0,9.56-4.3,9.56-9.56l-.05-65.75c0-5.26-.82-9.56-6.08-9.56ZM104.54,92.41c0,2.76-2.26,5.01-5.01,5.01H29.34c-2.76,0-5.01-2.26-5.01-5.01v-48.91c0-2.76,2.26-5.01,5.01-5.01h70.19c2.76,0,5.01,2.26,5.01,5.01v48.91Z"/>
  <path class="cls-3" d="M91.95,64h-54.83c-2.39,0-4.32,2.02-4.32,4.52s1.94,4.52,4.32,4.52h54.83c2.39,0,4.32-2.02,4.32-4.52s-1.94-4.52-4.32-4.52Z"/>
  <path class="cls-3" d="M91.95,80.25h-54.83c-2.39,0-4.32,2.02-4.32,4.52s1.94,4.52,4.32,4.52h54.83c2.39,0,4.32-2.02,4.32-4.52s-1.94-4.52-4.32-4.52Z"/>
</svg>