<?xml version="1.0" encoding="UTF-8"?>
<svg id="Layer_1" data-name="Layer 1" xmlns="http://www.w3.org/2000/svg" viewBox="0 0 128 128">
  <defs>
    <style>
      .cls-1 {
        fill: #3a3b42;
        stroke-width: 0px;
      }
    </style>
  </defs>
  <path class="cls-1" d="M72.83,30.3H26.2c-5.26,0-9.56,4.3-9.56,9.56v56.19c0,5.26,4.3,9.56,9.56,9.56h76.47c5.26,0,9.56-4.3,9.56-9.56l-.05-65.75c0-5.26-.82-9.56-6.08-9.56l-28.73.36c-2.57.04-4.63,2.15-4.6,4.72l.06,4.48ZM24.33,92.41v-48.91c0-2.76,2.26-5.01,5.01-5.01h70.19c2.76,0,5.01,2.26,5.01,5.01v48.91c0,2.76-2.26,5.01-5.01,5.01H29.34c-2.76,0-5.01-2.26-5.01-5.01ZM32.8,52.18c0-2.5,1.94-4.52,4.32-4.52h54.83c2.39,0,4.32,2.02,4.32,4.52s-1.94,4.52-4.32,4.52h-54.83c-2.39,0-4.32-2.02-4.32-4.52ZM91.95,64h-54.83c-2.39,0-4.32,2.02-4.32,4.52s1.94,4.52,4.32,4.52h54.83c2.39,0,4.32-2.02,4.32-4.52s-1.94-4.52-4.32-4.52ZM91.95,80.25h-54.83c-2.39,0-4.32,2.02-4.32,4.52s1.94,4.52,4.32,4.52h54.83c2.39,0,4.32-2.02,4.32-4.52s-1.94-4.52-4.32-4.52Z"/>
</svg>