<svg id="Layer_1" data-name="Layer 1" xmlns="http://www.w3.org/2000/svg" viewBox="0 0 129.26 129.26"><path d="M121.69,61.93a21.24,21.24,0,0,0-2.88-4.78c-4.27-5.16-7.33-1.24-7.33-1.24-1.87,1.27-1.61,5.27-.26,7.18s6,7.89.67,17.39S87.28,95,82.42,96.15s-4.52,5.16-4.52,5.16c.86,7.59,6.13,5.76,18.73,1s18.92-10.74,24.49-19.86a21.16,21.16,0,0,0,2.21-15.74ZM67.24,99.1,53.67,83.66s-3.52-3-6.21,0-.94,6.8-.94,6.8l5.8,6.62C30,95.55,19.67,85.27,15.41,78.76s.94-14.51.94-14.51,3.74-4.6.52-8.26-6.73.67-6.73.67A21,21,0,0,0,6.7,61.93L5.09,66.76a27.24,27.24,0,0,0,.6,12.75c8.71,24.68,48,28.16,48,28.16s-7,8-7.15,8.33a5.18,5.18,0,0,0,.6,6.44c2.77,3.1,6.47,0,6.47,0s7.55-8.19,12.64-13.91S67.24,99.1,67.24,99.1ZM65.63,5.43a38.29,38.29,0,1,0,38.14,38.29A38.22,38.22,0,0,0,65.63,5.43ZM48.8,38.3l3.11-3.14a1.14,1.14,0,0,1,1.68,0l6.06,6.06a1.16,1.16,0,0,0,2-.83V17.73a1.17,1.17,0,0,1,1.16-1.19h4.49a1.17,1.17,0,0,1,1.19,1.19V40.39a1.17,1.17,0,0,0,2,.83l6.05-6.06a1.16,1.16,0,0,1,1.69,0l3.1,3.14a1.18,1.18,0,0,1,0,1.65L65.89,55.43a1.23,1.23,0,0,1-1.68,0L48.8,40A1.13,1.13,0,0,1,48.8,38.3Zm43,24a3,3,0,0,1-3,3H41.36a3,3,0,0,1-3-3V62a3,3,0,0,1,3-3.07H88.74a3,3,0,0,1,3,3.07Z" style="fill:#3a3b42"/></svg>