<svg id="Layer_1" data-name="Layer 1" xmlns="http://www.w3.org/2000/svg" viewBox="0 0 129.26 129.26"><path d="M122.89,63.6a23.17,23.17,0,0,0-3.57-6.43C115.05,52,112,55.9,112,55.9c-1.9,1.27-1.64,5.28-.26,7.22s6,7.84.66,17.36S87.79,95,82.92,96.14s-4.54,5.17-4.54,5.17c.86,7.58,6.17,5.76,18.78,1s18.93-10.75,24.47-19.86a20.74,20.74,0,0,0,2.53-14.09ZM67.74,99.11,54.21,83.64s-3.53-3-6.25,0S47,90.48,47,90.48l5.8,6.62C30.48,95.54,20.18,85.28,15.94,78.73s.93-14.46.93-14.46,3.72-4.61.49-8.26-6.73.67-6.73.67A21.1,21.1,0,0,0,6.5,63.6L5.35,68.4A26.47,26.47,0,0,0,6.2,79.52c8.7,24.69,48,28.11,48,28.11s-7,8.07-7.18,8.36a5.21,5.21,0,0,0,.6,6.44c2.79,3.12,6.47,0,6.47,0s7.55-8.22,12.64-13.91S67.74,99.11,67.74,99.11ZM66.15,5.44a38.3,38.3,0,1,0,38.15,38.3A38.24,38.24,0,0,0,66.15,5.44ZM81.8,58.65,66.37,74.16a1.16,1.16,0,0,1-1.64,0L49.3,58.65a1.15,1.15,0,0,1,0-1.63l3.12-3.16a1.21,1.21,0,0,1,1.68,0l6,6.1a1.19,1.19,0,0,0,2-.86V36.45a1.2,1.2,0,0,1,1.19-1.19h4.46A1.17,1.17,0,0,1,69,36.45V59.1A1.19,1.19,0,0,0,71,60L77,53.86a1.16,1.16,0,0,1,1.64,0L81.8,57A1.1,1.1,0,0,1,81.8,58.65Zm10.45-30a3,3,0,0,1-3,3.05H41.86a3,3,0,0,1-3-3.05v-.33a3,3,0,0,1,3-3H89.24a3,3,0,0,1,3,3Z" style="fill:#3a3b42"/></svg>