<?xml version="1.0" encoding="UTF-8"?>
<svg id="Layer_1" data-name="Layer 1" xmlns="http://www.w3.org/2000/svg" viewBox="0 0 128 128">
  <defs>
    <style>
      .cls-1 {
        fill: #3a3b42;
        stroke-width: 0px;
      }
    </style>
  </defs>
  <path class="cls-1" d="M44.76,67.17h-26.33c-3.29,0-5.96-2.67-5.96-5.96V19.51c0-3.29,2.67-5.96,5.96-5.96h41.71c3.29,0,5.96,2.67,5.96,5.96v25.05c-10.57,3.15-18.79,11.8-21.33,22.61ZM119.5,80.39c0,19.48-15.85,35.33-35.33,35.33s-35.33-15.85-35.33-35.33c0-2.78.33-5.48.94-8.08,2.9-12.34,12.27-22.2,24.33-25.79,3.19-.95,6.57-1.47,10.07-1.47,19.48,0,35.33,15.85,35.33,35.33ZM86.87,60.51c0-1.49-1.39-2.7-3.1-2.7s-3.1,1.21-3.1,2.7v20.9h-16.24c-1.71,0-3.1,1.21-3.1,2.7s1.39,2.7,3.1,2.7h19.34c1.71,0,3.1-1.21,3.1-2.7v-23.6Z"/>
</svg>