<svg id="Layer_1" data-name="Layer 1" xmlns="http://www.w3.org/2000/svg" viewBox="0 0 128 128"><path d="M85.39,64.53A15.63,15.63,0,1,0,69.77,48.91,15.55,15.55,0,0,0,85.39,64.53Zm-41.65,0A15.63,15.63,0,1,0,28.12,48.91,15.56,15.56,0,0,0,43.74,64.53Zm0,10.41C31.6,74.94,7.29,81,7.29,93.17V101a5.22,5.22,0,0,0,5.2,5.2H75a5.22,5.22,0,0,0,5.21-5.2V93.17C80.19,81,55.87,74.94,43.74,74.94Zm41.65,0c-1.51,0-3.22.11-5,.26.11,0,.16.16.21.21,5.94,4.32,10,10.1,10,17.76V101a15.42,15.42,0,0,1-.94,5.2h27a5.22,5.22,0,0,0,5.2-5.2V93.17C121.84,81,97.53,74.94,85.39,74.94Z" style="fill:#3a3c43"/></svg>