<svg id="Layer_1" data-name="Layer 1" xmlns="http://www.w3.org/2000/svg" viewBox="0 0 128 128"><path d="M30.54,35.88A13.57,13.57,0,1,1,44.1,49.44,13.58,13.58,0,0,1,30.54,35.88ZM97.93,86.14c.75-1.14,0-2.47-1.08-3.28a2.88,2.88,0,0,0-3.54,0,2.59,2.59,0,0,0-1.06,3.47c.92,1.48.43,2.57-.13,3.82a9.49,9.49,0,0,0-.38,1.46h6.64a6.58,6.58,0,0,0-.21-1.13C97.57,89.05,96.84,87.8,97.93,86.14ZM95.39,66.36A5,5,0,0,0,90,70.85c-.14,2,0,3.94,0,6h10.12c0-2,0-3.87,0-5.72A4.93,4.93,0,0,0,95.39,66.36ZM124.73,57a102.62,102.62,0,0,1-5.27,35c-2.85,8.26-6.86,15.88-13.84,21.42-2.88,2.28-6.31,3.86-9.49,5.76H94c-1.17-.58-2.34-1.16-3.5-1.76C82.08,113.16,76.7,106.13,73,97.73a80.28,80.28,0,0,1-3.91-10.87A41.91,41.91,0,1,1,87.52,50.77a30.84,30.84,0,0,0,6.8-3.89h1.81a69.46,69.46,0,0,0,7.77,4.3c5.7,2.32,11.75,3,17.88,3.12C124,54.35,124.71,55,124.73,57ZM67.45,80.21c-.57-2.87-1-5.76-1.33-8.67a10.89,10.89,0,0,1-.3,1.35A12.31,12.31,0,0,1,60,80c-3.94,2.36-8.83,3.32-13.36,3.71a30.42,30.42,0,0,1-16.6-3.34c-3.4-1.85-6.28-4.65-6.9-8.61-.68-4.39,2.48-9.44,5.23-12.65,6.25-7.3,16.65-10.64,25.54-6.19,5.22,2.62,9.94,7.21,11.67,12.42q-.24-4.2-.22-8.46c0-1.73,1-2.44,2.62-2.53,2.65-.15,5.31-.22,7.93-.58q2.68-.36,5.28-1c0-.22,0-.44,0-.66a35.66,35.66,0,1,0-13.78,28.1Zm41,.46a3.86,3.86,0,0,0-1.58-2.94c-1.69-.72-1.79-1.79-1.69-3.24.08-1,0-2,0-3.07a10.14,10.14,0,0,0-20.27,0c0,1.8,0,3.61,0,5.52-2.12.62-3.33,1.75-3.32,3.91,0,4.52,0,9,0,13.56a3.37,3.37,0,0,0,3.58,3.69c6.57.08,13.14.07,19.71,0a3.37,3.37,0,0,0,3.61-3.67C108.57,89.83,108.63,85.25,108.46,80.67Z" style="fill:#3a3b42"/></svg>