<svg id="Layer_1" data-name="Layer 1" xmlns="http://www.w3.org/2000/svg" viewBox="0 0 128 128"><path d="M50.87,60a20,20,0,1,0-20-20A20,20,0,0,0,50.87,60Zm0-28.52A8.56,8.56,0,1,1,42.32,40,8.54,8.54,0,0,1,50.87,31.43Zm0,38.51c-13.35,0-39.93,6.67-39.93,20v4.28a5.72,5.72,0,0,0,5.7,5.7H85.11a5.72,5.72,0,0,0,5.7-5.7V89.91C90.81,76.61,64.22,69.94,50.87,69.94ZM24.29,88.48c4.79-3.31,16.37-7.13,26.58-7.13s21.8,3.82,26.59,7.13ZM91,70.28c6.62,4.79,11.18,11.18,11.18,19.63v10h17.12a5.72,5.72,0,0,0,5.7-5.7V89.91C125,78.38,105.07,71.82,91,70.28ZM85.11,60a20,20,0,0,0,0-39.93,19.69,19.69,0,0,0-8.56,2,31.19,31.19,0,0,1,0,36A19.69,19.69,0,0,0,85.11,60Z" style="fill:#3a3c43"/></svg>