<svg id="Layer_1" data-name="Layer 1" xmlns="http://www.w3.org/2000/svg" viewBox="0 0 128 128"><path d="M66.23,2.2h40.49a31.85,31.85,0,0,1,3.78.25c2.43.29,3.49,1.7,3.68,4.77,0,.33,0,.65,0,1V85.63c0,3.05-1.13,4.67-4,5.64-3.23,1.08-6.54,1.94-9.71,3.17a38.92,38.92,0,0,0-14,9.38c-4.82,5-9.29,10.31-14,15.44A59,59,0,0,1,68,123.59a2.42,2.42,0,0,1-3.53,0c-2.47-2.43-4.93-4.88-7.16-7.52-5.7-6.75-11.41-13.47-18.95-18.31a37.16,37.16,0,0,0-9.72-4.49c-2.14-.63-4.28-1.26-6.39-2-2.86-1-4-2.56-4-5.56q0-38.83,0-77.67a13.75,13.75,0,0,1,.3-2.78A3.5,3.5,0,0,1,22,2.45a41.27,41.27,0,0,1,4.16-.24Q46.16,2.18,66.23,2.2Zm36.69,44.71A36.71,36.71,0,0,0,63.54,13a34.87,34.87,0,0,0-24,11.27c-8.15,8.68-11.37,19-9.81,30.84a36.83,36.83,0,0,0,73.15-8.23Zm-47.24,7.8a15.76,15.76,0,0,0-1.57.67C47.34,59.38,43,65.14,41.54,73A2,2,0,0,0,42,74.48a34.73,34.73,0,0,0,34.8,8.17A38.15,38.15,0,0,0,89.5,75.46a2.93,2.93,0,0,0,1.16-3.34,25.29,25.29,0,0,0-7-12.77A29.64,29.64,0,0,0,75,53.91a14.81,14.81,0,0,0,2.87-11.76c-.78-4.79-5.18-9.51-9.68-10.31-6.68-1.18-12.27,3.88-13.58,9.7a14.91,14.91,0,0,0,2.66,12.34C56.67,54.2,56.18,54.47,55.68,54.71Z" style="fill:#3a3b42"/></svg>