<svg id="Layer_1" data-name="Layer 1" xmlns="http://www.w3.org/2000/svg" viewBox="0 0 128 128"><path d="M25.29,28.76A17.63,17.63,0,1,1,42.92,46.4,17.63,17.63,0,0,1,25.29,28.76Zm28.6,61.29h25.4c6.17,0,6.91-7.16,6.91-7.16.25-8.38-7.89-8.38-7.89-8.38H58.58s-3.45-4.69-7.65-11.84-7.15-8.88-7.15-8.88-5.42-4.19-16.52-3S14.43,62.92,14.43,62.92L5.06,117.67l32.31-.25L42.06,78a19.52,19.52,0,0,0,5.17,8.14C51.43,90.29,53.89,90.05,53.89,90.05Zm66.68-33-2.41-1.35a4.17,4.17,0,0,0-5.79,1.8L95.72,91.65A4.16,4.16,0,0,1,92,94H57.16A4.18,4.18,0,0,0,53,98.24l.08,3.51a4.16,4.16,0,0,0,4.16,4.08h42.1a4.19,4.19,0,0,0,3.78-2.4l19.18-41A4.17,4.17,0,0,0,120.57,57.07Z" style="fill:#3a3c43"/></svg>