<svg id="Layer_1" data-name="Layer 1" xmlns="http://www.w3.org/2000/svg" viewBox="0 0 129.26 129.26"><path d="M111.82,11.25H18.09a6.54,6.54,0,0,0-6.52,6.52v93.72A6.54,6.54,0,0,0,18.09,118h93.73a6.54,6.54,0,0,0,6.52-6.52V17.77A6.54,6.54,0,0,0,111.82,11.25ZM87.65,94.54H73.36l-6-28.5c-.1-.55-.26-1.39-.46-2.5s-.42-2.33-.64-3.65-.44-2.56-.61-3.73-.32-2.1-.42-2.81c-.1.71-.24,1.65-.42,2.81s-.38,2.4-.61,3.69-.44,2.51-.64,3.65-.38,2-.53,2.62L57,94.54H42.73L29.89,40.28h12l6,29.64c.2,1.17.48,2.63.84,4.41s.68,3.54,1,5.32.53,3.27.68,4.48c.2-1.26.47-2.78.8-4.56s.64-3.49.95-5.17.56-3,.76-3.87l6.61-30.25h11.4l6.46,30.4c.2.91.47,2.2.8,3.88s.66,3.38,1,5.12.57,3.24.72,4.45c.15-1.26.38-2.77.68-4.52s.64-3.5,1-5.24.66-3.23.91-4.45l6-29.64h12Z" style="fill:#3a3b42"/></svg>