<?xml version="1.0" encoding="utf-8"?>
<!-- Generator: Adobe Illustrator 27.3.1, SVG Export Plug-In . SVG Version: 6.00 Build 0)  -->
<svg version="1.1" id="Layer_1" xmlns="http://www.w3.org/2000/svg" xmlns:xlink="http://www.w3.org/1999/xlink" x="0px" y="0px"
	 viewBox="0 0 61.5 56" style="enable-background:new 0 0 61.5 56;" xml:space="preserve">
<style type="text/css">
	.st0{fill:url(#SVGID_1_);}
	.st1{fill:url(#SVGID_00000055682225509851418700000011963124848032920237_);}
	.st2{fill:#DD6B2A;}
	.st3{fill:#FF6C0D;}
	.st4{fill:#3413BF;}
	.st5{fill:#271B9B;}
	.st6{fill:url(#SVGID_00000006672081937225158850000010010699715782388393_);}
	.st7{fill:url(#SVGID_00000046338877685312171320000015956179168934268573_);}
	.st8{fill:#FFFFFF;}
</style>
<g>
	
		<linearGradient id="SVGID_1_" gradientUnits="userSpaceOnUse" x1="41.5328" y1="34.5336" x2="60.2627" y2="0.6275" gradientTransform="matrix(1 0 0 -1 0 58)">
		<stop  offset="0.1282" style="stop-color:#0480B4"/>
		<stop  offset="0.2504" style="stop-color:#0979B8"/>
		<stop  offset="0.4293" style="stop-color:#1665C4"/>
		<stop  offset="0.6429" style="stop-color:#2B45D8"/>
		<stop  offset="0.8814" style="stop-color:#4819F2"/>
		<stop  offset="0.9586" style="stop-color:#5309FC"/>
	</linearGradient>
	<polygon class="st0" points="57.2,41.2 57.2,28.1 30.9,14.9 30.9,27.9 	"/>
	
		<linearGradient id="SVGID_00000036234965766040664500000009151465230811556781_" gradientUnits="userSpaceOnUse" x1="25.1962" y1="52.0847" x2="-1.0551" y2="20.6741" gradientTransform="matrix(1 0 0 -1 0 58)">
		<stop  offset="2.291052e-02" style="stop-color:#FBB03B"/>
		<stop  offset="1" style="stop-color:#FF6C0D"/>
	</linearGradient>
	<polyline style="fill:url(#SVGID_00000036234965766040664500000009151465230811556781_);" points="4.5,27.3 4.5,14.9 30.9,1.8 
		30.9,14.9 4.5,27.9 	"/>
	<polygon class="st2" points="4.5,14.9 4.5,27.9 17.2,21.6 	"/>
	<polygon class="st3" points="30.9,28.1 30.9,41.2 4.5,27.9 17.2,21.6 	"/>
	<polyline class="st4" points="44.4,34.8 57.2,41.2 30.9,54.3 30.9,41.2 	"/>
	<polygon class="st5" points="57.2,41.2 57.2,28.1 44.4,34.8 	"/>
	
		<linearGradient id="SVGID_00000080894576966133279530000005590011421305725352_" gradientUnits="userSpaceOnUse" x1="17.1872" y1="36.4" x2="17.1872" y2="36.4" gradientTransform="matrix(1 0 0 -1 0 58)">
		<stop  offset="2.291052e-02" style="stop-color:#FBB03B"/>
		<stop  offset="1" style="stop-color:#FF6C0D"/>
	</linearGradient>
	<path style="fill:url(#SVGID_00000080894576966133279530000005590011421305725352_);" d="M17.2,21.6"/>
	
		<linearGradient id="SVGID_00000102527249867417720500000002168818285792802735_" gradientUnits="userSpaceOnUse" x1="4.4872" y1="30.7" x2="4.4872" y2="30.7" gradientTransform="matrix(1 0 0 -1 0 58)">
		<stop  offset="2.291052e-02" style="stop-color:#FBB03B"/>
		<stop  offset="1" style="stop-color:#FF6C0D"/>
	</linearGradient>
	<path style="fill:url(#SVGID_00000102527249867417720500000002168818285792802735_);" d="M4.5,27.3"/>
</g>
<g>
	<path class="st8" d="M101.4,9l-7.9,26.3h-6l-5.3-17.8l-5.4,17.9h-6L62.9,9h5.8l5.4,18.5L79.8,9H85l5.5,18.6L96.1,9H101.4z"/>
	<path class="st8" d="M108.4,13.9v7h11.1v4.9h-11.1v9.6h-5.6V9H121v4.9H108.4z"/>
	<path class="st8" d="M145.1,28.2c0,4.5-3.3,7.2-9.6,7.2H123V9h11.8c6,0,9.1,2.7,9.1,6.8c0,2.6-1.2,4.7-3.2,5.8
		C143.4,22.6,145.1,24.9,145.1,28.2z M128.6,13.6v6.2h5.5c2.7,0,4.2-1.1,4.2-3.1s-1.5-3.1-4.2-3.1C134.1,13.6,128.6,13.6,128.6,13.6
		z M139.5,27.5c0-2.2-1.5-3.3-4.4-3.3h-6.5v6.5h6.5C138,30.8,139.5,29.8,139.5,27.5z"/>
</g>
<g>
	<path class="st8" d="M84,40.3l-2.2,6.5h-0.7l-1.9-5.5l-1.9,5.5h-0.7l-2.2-6.5h0.7l1.9,5.6l1.9-5.6h0.6l1.9,5.6l1.9-5.6H84z"/>
	<path class="st8" d="M88.7,44.6h-4.1c0.1,1,0.8,1.7,1.9,1.7c0.6,0,1.1-0.2,1.5-0.6l0.4,0.4c-0.4,0.5-1.1,0.8-1.9,0.8
		c-1.5,0-2.5-1-2.5-2.5s1-2.5,2.4-2.5s2.4,1,2.4,2.5C88.7,44.4,88.7,44.5,88.7,44.6z M84.7,44.1h3.4c-0.1-1-0.8-1.6-1.7-1.6
		C85.4,42.5,84.7,43.1,84.7,44.1z"/>
	<path class="st8" d="M94.8,44.4c0,1.5-1,2.5-2.4,2.5c-0.8,0-1.5-0.4-1.9-1v1h-0.7V40h0.7v2.9c0.4-0.6,1.1-1,1.8-1
		C93.7,41.9,94.8,42.9,94.8,44.4z M94.1,44.4c0-1.1-0.8-1.9-1.8-1.9s-1.8,0.8-1.8,1.9c0,1.1,0.8,1.9,1.8,1.9
		C93.3,46.3,94.1,45.5,94.1,44.4z"/>
	<path class="st8" d="M98.9,40.9v2.5h3.3V44h-3.3v2.7h-0.7v-6.5h4.4v0.6h-3.7V40.9z"/>
	<path class="st8" d="M106,41.9v0.6c-0.1,0-0.1,0-0.2,0c-1,0-1.6,0.6-1.6,1.8v2.5h-0.7V42h0.6v1C104.5,42.3,105.1,41.9,106,41.9z"/>
	<path class="st8" d="M106.4,44.4c0-1.4,1.1-2.5,2.5-2.5s2.5,1,2.5,2.5s-1,2.5-2.5,2.5S106.4,45.8,106.4,44.4z M110.7,44.4
		c0-1.1-0.8-1.9-1.8-1.9s-1.8,0.8-1.8,1.9c0,1.1,0.8,1.9,1.8,1.9C109.9,46.3,110.7,45.5,110.7,44.4z"/>
	<path class="st8" d="M117,44v2.8h-0.7V44c0-1-0.5-1.5-1.5-1.5s-1.7,0.6-1.7,1.8v2.5h-0.7V42h0.6v0.9c0.4-0.6,1-0.9,1.8-0.9
		C116.1,41.9,117,42.6,117,44z"/>
	<path class="st8" d="M121.1,46.5c-0.3,0.2-0.6,0.3-1,0.3c-0.9,0-1.4-0.5-1.4-1.4v-2.9h-0.9V42h0.9v-1.1h0.7V42h1.5v0.6h-1.5v2.9
		c0,0.6,0.3,0.9,0.8,0.9c0.3,0,0.5-0.1,0.7-0.2L121.1,46.5z"/>
	<path class="st8" d="M129.7,45.1c0,1.1-0.8,1.7-2.4,1.7h-3v-6.5h2.8c1.4,0,2.3,0.6,2.3,1.7c0,0.7-0.4,1.2-1,1.5
		C129.2,43.7,129.7,44.2,129.7,45.1z M125,40.9v2.3h2.1c1,0,1.6-0.4,1.6-1.2s-0.6-1.2-1.6-1.2H125V40.9z M129.1,45
		c0-0.8-0.6-1.2-1.8-1.2H125v2.4h2.3C128.4,46.2,129.1,45.9,129.1,45z"/>
	<path class="st8" d="M134.6,43.8v3H134V46c-0.3,0.5-0.9,0.8-1.7,0.8c-1.1,0-1.8-0.6-1.8-1.4c0-0.7,0.5-1.4,1.9-1.4h1.5v-0.3
		c0-0.8-0.5-1.3-1.4-1.3c-0.6,0-1.2,0.2-1.6,0.6l-0.3-0.5c0.5-0.4,1.2-0.7,2-0.7C133.9,41.9,134.6,42.5,134.6,43.8z M133.9,45.4
		v-0.8h-1.5c-0.9,0-1.2,0.4-1.2,0.9c0,0.6,0.5,0.9,1.2,0.9C133.1,46.3,133.7,46,133.9,45.4z"/>
	<path class="st8" d="M135.5,46.3l0.3-0.5c0.4,0.3,1,0.5,1.7,0.5c0.9,0,1.3-0.3,1.3-0.8c0-1.3-3.1-0.3-3.1-2.2
		c0-0.8,0.7-1.4,1.9-1.4c0.6,0,1.3,0.2,1.7,0.5l-0.3,0.5c-0.4-0.3-0.9-0.4-1.4-0.4c-0.9,0-1.3,0.3-1.3,0.8c0,1.3,3.1,0.3,3.1,2.2
		c0,0.8-0.7,1.4-2,1.4C136.6,46.9,135.9,46.6,135.5,46.3z"/>
	<path class="st8" d="M144.7,44.6h-4.1c0.1,1,0.8,1.7,1.9,1.7c0.6,0,1.1-0.2,1.5-0.6l0.4,0.4c-0.4,0.5-1.1,0.8-1.9,0.8
		c-1.5,0-2.5-1-2.5-2.5s1-2.5,2.4-2.5s2.4,1,2.4,2.5C144.7,44.4,144.7,44.5,144.7,44.6z M140.6,44.1h3.4c-0.1-1-0.8-1.6-1.7-1.6
		S140.7,43.1,140.6,44.1z"/>
</g>
<image style="overflow:visible;enable-background:new    ;" width="87" height="106" xlink:href="F43E260F.jpg"  transform="matrix(0.9944 0 0 0.9944 -17.968 67.511)">
</image>
</svg>
